<svg width="88" height="88" viewBox="0 0 88 88" fill="none" xmlns="http://www.w3.org/2000/svg">
<g filter="url(#filter0_dd_122_7184)">
<rect x="14" y="14" width="60" height="60" rx="16" fill="url(#paint0_linear_122_7184)"/>
<rect x="14.5" y="14.5" width="59" height="59" rx="15.5" stroke="#E8D7FB"/>
<g clip-path="url(#clip0_122_7184)">
<path d="M35.3093 66.4812C35.2316 66.4812 35.1476 66.4616 35.0894 66.3828L32.5945 63.1017V66.4484H32.0255V62.3274C32.0255 62.1634 32.1613 62.0321 32.3165 62.0321C32.4069 62.0321 32.4846 62.0583 32.5426 62.1371L35.0312 65.4117V62.078H35.6001V66.1925C35.6001 66.3631 35.4643 66.4812 35.3093 66.4812Z" fill="#1A1918"/>
<path d="M40.0153 66.5207C39.4465 66.5207 38.8518 66.4026 38.2959 66.1927L38.4317 65.7201C38.9423 65.8842 39.4982 66.0023 40.0153 66.0023C40.7328 66.0023 41.1077 65.7464 41.1077 65.3855C41.1077 65.0574 40.8167 64.8933 39.8149 64.4208C38.813 63.9484 38.4188 63.6466 38.4188 63.0558C38.4188 62.3145 38.9875 62.0125 40.0604 62.0125C40.5066 62.0125 41.1916 62.1045 41.5861 62.2226L41.4956 62.7081C41.0623 62.6032 40.5195 62.531 40.0734 62.531C39.3173 62.531 39.007 62.6753 39.007 63.0363C39.007 63.3905 39.2331 63.5415 40.2932 64.0337C41.4115 64.5521 41.6959 64.8147 41.6959 65.3527C41.6959 66.1337 40.9589 66.5207 40.0153 66.5207Z" fill="#1A1918"/>
<path d="M44.3914 62.0782H44.9796V66.4486H44.3914V62.0782Z" fill="#1A1918"/>
<path d="M49.9831 64.4668H48.5221V65.95H49.9831C50.4807 65.95 50.7845 65.635 50.7845 65.1952C50.7845 64.7818 50.4678 64.4668 49.9831 64.4668ZM49.6985 62.5769H48.5221V63.9747H49.6985C50.1705 63.9747 50.513 63.6728 50.513 63.2529C50.513 62.8395 50.2156 62.5769 49.6985 62.5769ZM49.9895 66.4486H48.2314C48.0632 66.4486 47.934 66.3173 47.934 66.1533V62.3736C47.934 62.216 48.0632 62.0782 48.2314 62.0782H49.6857C50.5777 62.0782 51.1077 62.5179 51.1077 63.207C51.1077 63.5809 50.8879 63.9287 50.5517 64.1321C51.0496 64.2831 51.3855 64.6965 51.3855 65.1952C51.3855 65.8908 50.8104 66.4486 49.9895 66.4486Z" fill="#1A1918"/>
<path d="M54.2102 66.4486C54.0489 66.4486 53.9196 66.3108 53.9196 66.1533V62.0782H54.5076V65.9171H56.8476V66.4486H54.2102Z" fill="#1A1918"/>
<path d="M60.8574 66.5207C59.6551 66.5207 58.9311 66.0745 58.9311 65.1755C58.9311 64.749 59.1704 64.3422 59.6358 64.1518C59.2609 63.9156 59.067 63.5809 59.067 63.2134C59.067 62.3998 59.6942 62.0125 60.8705 62.0125C61.2648 62.0125 61.8206 62.0585 62.2861 62.1635L62.2214 62.6491C61.7302 62.5702 61.2711 62.5245 60.8251 62.5245C60.0624 62.5245 59.6551 62.7344 59.6551 63.2397C59.6551 63.64 60.0301 63.955 60.5279 63.955H61.5362C61.6784 63.955 61.7882 64.0665 61.7882 64.2043C61.7882 64.3486 61.6784 64.4602 61.5362 64.4602H60.4504C59.8814 64.4602 59.5196 64.7423 59.5196 65.1755C59.5196 65.812 60.1078 66.0023 60.8446 66.0023C61.2454 66.0023 61.7882 65.95 62.2277 65.8449L62.3119 66.3239C61.8917 66.4421 61.3422 66.5207 60.8574 66.5207Z" fill="#1A1918"/>
<path d="M27.6483 62.8978L28.6785 65.4789L27.1226 64.2347L27.6483 62.8978ZM29.4784 66.0736L27.894 62.2021C27.8488 62.0906 27.7583 62.0315 27.6483 62.0315C27.5385 62.0315 27.4415 62.0906 27.3963 62.2021L25.6571 66.4485H26.252L26.9405 64.6978L28.9949 66.3829C29.0775 66.4506 29.1371 66.4813 29.2148 66.4813C29.3698 66.4813 29.5056 66.3632 29.5056 66.1926C29.5056 66.1649 29.4958 66.1209 29.4784 66.0736Z" fill="#1A1918"/>
<path d="M62.3431 39.7875C62.3431 49.8992 54.1466 58.0956 44.0347 58.0956C33.9237 58.0956 25.7264 49.8992 25.7264 39.7875C25.7264 29.6764 33.9237 21.4791 44.0347 21.4791C54.1466 21.4791 62.3431 29.6764 62.3431 39.7875Z" fill="#1A1918" stroke="white"/>
<path d="M44.343 32.6632L49.0809 44.3567L41.9245 38.7196L44.343 32.6632ZM52.7597 47.0505L45.4719 29.512C45.2639 29.0062 44.8479 28.7385 44.343 28.7385C43.8372 28.7385 43.3909 29.0062 43.1829 29.512L35.1841 48.7495H37.9203L41.0867 40.8178L50.5359 48.4516C50.916 48.759 51.1902 48.8979 51.5466 48.8979C52.2605 48.8979 52.8845 48.3628 52.8845 47.5903C52.8845 47.4646 52.8401 47.2651 52.7597 47.0505Z" fill="white"/>
</g>
</g>
<defs>
<filter id="filter0_dd_122_7184" x="0" y="0" width="88" height="88" filterUnits="userSpaceOnUse" color-interpolation-filters="sRGB">
<feFlood flood-opacity="0" result="BackgroundImageFix"/>
<feColorMatrix in="SourceAlpha" type="matrix" values="0 0 0 0 0 0 0 0 0 0 0 0 0 0 0 0 0 0 127 0" result="hardAlpha"/>
<feOffset dx="4" dy="-4"/>
<feGaussianBlur stdDeviation="5"/>
<feComposite in2="hardAlpha" operator="out"/>
<feColorMatrix type="matrix" values="0 0 0 0 0.909804 0 0 0 0 0.843137 0 0 0 0 0.984314 0 0 0 0.8 0"/>
<feBlend mode="normal" in2="BackgroundImageFix" result="effect1_dropShadow_122_7184"/>
<feColorMatrix in="SourceAlpha" type="matrix" values="0 0 0 0 0 0 0 0 0 0 0 0 0 0 0 0 0 0 127 0" result="hardAlpha"/>
<feOffset dx="-4" dy="4"/>
<feGaussianBlur stdDeviation="5"/>
<feComposite in2="hardAlpha" operator="out"/>
<feColorMatrix type="matrix" values="0 0 0 0 0.909804 0 0 0 0 0.843137 0 0 0 0 0.984314 0 0 0 0.8 0"/>
<feBlend mode="normal" in2="effect1_dropShadow_122_7184" result="effect2_dropShadow_122_7184"/>
<feBlend mode="normal" in="SourceGraphic" in2="effect2_dropShadow_122_7184" result="shape"/>
</filter>
<linearGradient id="paint0_linear_122_7184" x1="44" y1="14" x2="44" y2="74" gradientUnits="userSpaceOnUse">
<stop stop-color="#E8D7FB"/>
<stop offset="1" stop-color="#BB88F4"/>
</linearGradient>
<clipPath id="clip0_122_7184">
<rect width="46" height="46" fill="white" transform="translate(21 21)"/>
</clipPath>
</defs>
</svg>
