<svg width="88" height="88" viewBox="0 0 88 88" fill="none" xmlns="http://www.w3.org/2000/svg">
<g filter="url(#filter0_dd_122_5405)">
<rect x="14" y="14" width="60" height="60" rx="16" fill="url(#paint0_linear_122_5405)"/>
<rect x="14.5" y="14.5" width="59" height="59" rx="15.5" stroke="#E8D7FB"/>
<path d="M41.5118 58.0074C41.5157 58.0074 41.5196 58.019 41.5196 58.0423C41.5234 58.2051 41.5273 58.3641 41.5312 58.527C41.5545 58.4029 41.5777 58.2788 41.6049 58.1509C41.5855 57.9143 41.3994 58.0346 41.5118 58.0074Z" fill="#FEFEFE"/>
<path d="M51.686 44.7473C51.682 44.7512 51.6741 44.7512 51.6702 44.7552C51.6741 44.7591 51.682 44.7631 51.686 44.7671C51.682 44.7632 51.686 44.7552 51.686 44.7473Z" fill="#FEFEFE"/>
<path d="M45.2766 28.4706V28.4745H45.2884C45.2845 28.4745 45.2805 28.4706 45.2766 28.4706Z" fill="#FEFEFE"/>
<path d="M50.7242 61.1601C50.7746 60.5979 50.7475 60.0279 50.8173 59.4696C50.9724 58.2405 50.8251 56.9843 51.1469 55.7707C51.3058 55.1426 50.7979 54.4059 51.4493 53.8553L51.2864 53.3203C51.1471 53.0376 51.1543 52.7048 51.3058 52.4285C51.2676 51.3508 51.3325 50.2718 51.4997 49.2065C51.5578 47.7254 51.6198 46.2443 51.678 44.7593C51.6742 44.7554 51.6664 44.7515 51.6625 44.7476C48.4948 46.2016 45.5093 44.1661 45.0014 41.7234C44.668 40.1182 44.8463 38.6022 46.0987 37.377C46.308 37.1715 46.4864 36.935 46.6803 36.7101C47.1921 33.6432 46.8353 30.8283 44.2143 28.6337C44.6059 28.4089 44.9587 28.5368 45.2767 28.4787V28.4748C42.0624 27.6684 38.1619 29.8668 36.8708 33.2245C36.4693 34.2167 36.288 35.2843 36.3396 36.3534C39.5267 34.8762 42.3842 36.6404 43.1713 39.3273C43.9894 42.1228 41.8104 45.0811 38.9141 45.1238C38.0848 45.1278 37.2597 45.0049 36.4675 44.7593C36.5257 46.3025 36.5852 47.8456 36.6459 49.3888C36.7879 50.3955 36.8489 51.4121 36.8281 52.4286C36.8359 52.669 36.8436 52.9093 36.8514 53.1497C36.8436 53.3087 36.8359 53.4676 36.8281 53.6305C37.0298 54.605 37.1504 55.5945 37.1887 56.5888C37.1817 56.5634 37.1765 56.5375 37.1732 56.5113C37.1771 56.5385 37.1849 56.5617 37.1887 56.5888C37.2663 58.2755 37.3128 59.966 37.433 61.6526C37.4834 62.3505 37.2314 62.6994 36.5877 62.8778C35.8278 63.091 35.0795 63.3469 34.3273 63.5873C35.3198 63.7121 36.3209 63.7562 37.3205 63.7191C38.3945 63.6959 38.8831 63.219 38.9878 62.1527C39.0537 61.4742 39.1118 60.7957 39.1739 60.1172C39.2436 58.8881 39.3135 57.6551 39.3832 56.426H39.5345V59.935C39.5538 60.4661 39.5616 61.0012 39.5965 61.5324C39.7516 64.0099 39.8252 63.9945 37.3554 64.4946C37.2989 64.5122 37.2443 64.5356 37.1926 64.5644C37.3399 64.6613 37.4873 64.7583 37.6346 64.8591C37.6799 64.8664 37.7196 64.8933 37.7431 64.9327C38.3325 64.9366 38.9257 64.987 39.5073 64.9327C40.5658 64.8319 41.066 64.2659 41.1435 63.2151C41.19 62.5405 41.2598 61.8658 41.318 61.1912C41.2577 60.3004 41.3283 59.4056 41.5274 58.5353C41.5235 58.3724 41.5196 58.2135 41.5157 58.0506C41.5157 58.0273 41.5079 58.0118 41.5079 58.0157C41.3955 58.0428 41.5816 57.9227 41.601 58.1592C41.6204 58.0545 41.6436 57.9498 41.6631 57.8451V61.9085C41.6747 62.3854 41.6902 62.8584 41.6979 63.3353C41.7173 65.0607 41.6088 65.2158 39.9648 65.7082C39.5112 65.8439 39.0381 65.9253 38.5884 66.0765C38.2627 66.1889 37.8478 66.1269 37.5415 66.5108C38.8792 66.4604 40.1315 66.6116 41.3761 66.41C42.6634 66.2006 43.1752 65.681 43.4388 64.4248C43.6327 63.502 43.7141 62.5521 44.0669 61.6177C44.1069 61.6815 44.1407 61.749 44.1678 61.8193C44.3461 62.6917 44.5244 63.568 44.6951 64.4403C44.9355 65.6617 45.4317 66.1812 46.6725 66.3983C47.9559 66.6193 49.2547 66.4681 50.5846 66.4992C50.3946 66.1735 50.0961 66.2277 49.8557 66.1579C49.0299 65.9175 48.1885 65.7121 47.3781 65.4329C46.7888 65.2274 46.3662 64.8513 46.3739 64.1263C46.3933 62.1411 46.3817 60.156 46.3817 58.1708H46.622C46.7074 59.4154 46.8082 60.6561 46.8741 61.9007C47.0253 64.7777 47.3665 65.0917 50.255 64.9327C50.4179 64.6613 50.8172 64.8746 50.9685 64.5838C50.2744 64.5799 49.6696 64.2465 49.0337 64.0332C48.681 63.9118 48.4548 63.5676 48.4831 63.1957C48.5141 61.1563 48.4366 59.1091 48.7119 57.0774C48.8786 58.7834 49.0105 60.4933 49.1423 62.1993C49.2043 62.998 49.5649 63.6222 50.4024 63.6765C51.5345 63.7541 52.6706 63.6959 53.8066 63.6959C53.2159 63.4217 52.6039 63.1961 51.9765 63.0212C50.5885 62.5754 50.5963 62.5714 50.7242 61.1601ZM41.9926 32.069C41.9874 32.6364 41.5287 33.0952 40.9613 33.1003C40.3525 33.112 39.895 32.763 39.8834 31.9721C39.8887 31.6978 40.0061 31.4377 40.2084 31.2524C40.4106 31.067 40.6799 30.9726 40.9536 30.9911C41.6786 30.9795 42.0043 31.468 41.9926 32.069ZM46.6531 49.0281C46.657 50.5984 45.455 51.9671 44.0825 51.9633C42.7875 51.9594 41.4654 50.4317 41.5119 48.9894C41.4421 48.5628 41.3684 48.1325 41.2715 47.5354C42.1981 48.1674 42.9775 48.8149 44.0205 48.8382C45.0867 48.8575 45.9242 48.3109 46.7966 47.6711C46.9827 48.1829 46.5135 48.5823 46.6531 49.0281Z" fill="#FE733E"/>
<path d="M37.3152 52.0635L37.3315 52.4002C37.3428 52.6348 37.3505 52.8724 37.3579 53.1022L37.3589 53.1332L37.3847 53.9323L36.6549 53.6058C33.9793 52.4086 31.8838 50.5315 30.1763 48.2166C29.001 46.6382 28.1309 44.8542 27.6104 42.9565L27.6096 42.9536C27.5822 42.8512 27.56 42.7828 27.5384 42.7343C27.5342 42.7247 27.5304 42.7169 27.5271 42.7106C27.502 42.7111 27.4581 42.7154 27.3896 42.7321L27.3891 42.7323C26.9781 42.8324 26.5482 42.793 26.2257 42.495C25.9214 42.214 25.8246 41.8026 25.8246 41.4129C25.8246 40.8612 25.824 40.3094 25.8233 39.7573C25.8218 38.3759 25.8202 36.9933 25.8285 35.6096L37.3152 52.0635ZM37.3152 52.0635L36.9971 51.9523M37.3152 52.0635L36.9971 51.9523M36.9971 51.9523C36.9733 51.944 36.9473 51.9335 36.91 51.918L36.8991 51.9135C36.8704 51.9015 36.8335 51.8861 36.7952 51.8716C35.8107 51.4399 34.9037 50.8496 34.1102 50.1244L34.1103 50.1242M36.9971 51.9523L34.1103 50.1242M60.6329 42.9479C59.2023 47.7764 56.1389 51.2508 51.7554 53.5795C51.7199 53.6059 51.6868 53.6355 51.6567 53.668L51.166 54.1963L50.8432 53.5515C50.628 53.1216 50.639 52.6131 50.8728 52.1929L50.9534 52.048L51.1046 51.98C51.1712 51.95 51.2396 51.9159 51.3189 51.8762L51.3234 51.874L51.3234 51.874C54.0597 50.5413 56.0936 48.4327 57.6322 45.8056C59.2705 43.0012 59.9387 39.7349 59.5336 36.5124L59.5323 36.5021L59.5324 36.5021C59.1391 32.7447 57.3545 29.2705 54.5293 26.7624L54.5241 26.7578L54.5241 26.7577C51.058 23.5923 46.9551 22.3133 42.3663 22.7914C38.2463 23.2234 34.8001 25.0922 32.085 28.3156C29.1217 31.8378 28.1229 35.9327 28.6666 40.4025L60.6329 42.9479ZM60.6329 42.9479C60.6761 42.8046 60.7109 42.7623 60.7182 42.7546C60.7197 42.7541 60.7221 42.7534 60.7257 42.7526C60.742 42.749 60.781 42.7439 60.8541 42.7516L60.855 42.7517C61.2834 42.7956 61.6696 42.6754 61.9175 42.3427C62.1319 42.055 62.1735 41.6936 62.1736 41.41L60.6329 42.9479ZM61.2032 34.1929C61.6281 34.2401 61.8923 34.5076 62.0276 34.8024C62.1509 35.0709 62.1774 35.3736 62.1775 35.6083L25.8285 35.6095C25.8307 35.2276 25.9098 34.7945 26.2044 34.4835C26.5158 34.1548 26.9532 34.0758 27.4136 34.1584C27.4136 34.1579 27.4137 34.1575 27.4138 34.157C27.4168 34.1424 27.42 34.1261 27.4241 34.106C27.4329 34.0634 27.4441 34.0115 27.459 33.9574C28.8442 28.8274 31.9193 24.9692 36.7433 22.751C39.9638 21.2677 43.1318 20.7148 46.2076 21.0956C49.2825 21.4764 52.233 22.7863 55.0259 24.9789C57.7289 27.0885 59.6775 30.0153 60.5812 33.3228M61.2032 34.1929C61.2037 34.193 61.2042 34.1931 61.2047 34.1931L61.1463 34.6897L61.2 34.1926C61.2011 34.1927 61.2021 34.1928 61.2032 34.1929ZM61.2032 34.1929C60.9529 34.1632 60.8678 34.0758 60.8086 33.9821C60.7297 33.8572 60.6874 33.7047 60.6202 33.4624C60.6081 33.4189 60.5952 33.3725 60.5812 33.3228M60.5812 33.3228C60.581 33.3221 60.5808 33.3214 60.5806 33.3207L60.0995 33.4567L60.5818 33.325C60.5816 33.3243 60.5814 33.3235 60.5812 33.3228ZM34.1103 50.1242L34.0998 50.1151M34.1103 50.1242L34.0998 50.1151M34.0998 50.1151C31.0988 47.5223 29.1415 44.2993 28.6666 40.4026L34.0998 50.1151Z" fill="#B5D2F3" stroke="white"/>
<path d="M36.8362 53.6262C36.2624 55.2353 34.7347 55.1965 33.4359 55.5997C34.4129 55.8518 35.4055 56.1425 36.3826 55.9758C36.9642 55.875 37.0766 56.0844 37.1619 56.4294C37.1697 56.4566 37.1736 56.4837 37.1813 56.5109C37.1852 56.5341 37.193 56.5613 37.1968 56.5884C37.1585 55.5928 37.0379 54.602 36.8362 53.6262Z" fill="#FE684B"/>
<path d="M51.1468 55.7745C52.3876 56.3367 53.5585 55.7706 54.7566 55.6078C53.5856 55.1115 52.0696 55.3674 51.4531 53.8591C50.7979 54.4097 51.3058 55.1464 51.1468 55.7745Z" fill="#FE6446"/>
<path d="M41.6671 57.837C41.6477 57.9417 41.6244 58.0464 41.6051 58.1511C41.5818 58.2752 41.5547 58.3992 41.5314 58.5272C41.3323 59.3975 41.2618 60.2923 41.322 61.1832C41.6128 61.3343 41.3996 61.7337 41.6671 61.8965L41.6671 57.837Z" fill="#FED6C8"/>
<path d="M39.3908 56.4178C39.321 57.647 39.2512 58.8799 39.1814 60.109C39.3016 60.047 39.4218 59.9888 39.542 59.9268V56.4178H39.3908Z" fill="#FEEBE3"/>
<path d="M35.7461 64.9246H37.7467C37.7118 64.9013 37.6731 64.878 37.6381 64.8509C37.4909 64.7539 37.3435 64.657 37.1962 64.5562C36.6883 64.545 36.187 64.6723 35.7461 64.9246Z" fill="#FE9166"/>
<path d="M50.2551 64.9248H52.2015C51.8454 64.6651 51.408 64.5413 50.9686 64.5759C50.8173 64.8705 50.4141 64.6534 50.2551 64.9248Z" fill="#FE8F64"/>
<path d="M51.5461 52.3198C54.3881 50.9395 56.4857 48.7528 58.0677 46.0542C59.7614 43.1548 60.4523 39.778 60.0334 36.4463C59.6306 32.5639 57.7863 28.9736 54.8651 26.3848C51.2902 23.1241 47.0446 21.798 42.3182 22.2943C38.0688 22.7363 34.5017 24.675 31.7062 27.9939C28.6393 31.6346 27.6157 35.8725 28.174 40.4632C28.6664 44.5072 30.6981 47.8338 33.7766 50.4936C34.6142 51.2585 35.5717 51.8807 36.6109 52.3353C36.6846 52.3663 36.7583 52.3974 36.8358 52.4245C36.8565 51.408 36.7956 50.3915 36.6536 49.3847C36.576 49.3304 36.4985 49.2762 36.4209 49.218C35.654 48.6249 34.9381 47.9686 34.2807 47.2561C34.0752 47.0468 33.8193 46.8684 33.8193 46.5272C33.3618 46.8567 33.0322 46.628 32.7646 46.2635C31.263 44.2934 30.3889 41.917 30.2561 39.4434C30.1475 37.2024 30.3491 35.0233 31.2913 32.9257C32.4423 30.3348 34.3686 28.1646 36.8048 26.7144C37.2235 26.4585 37.4639 26.6873 37.7547 26.8772C38.0338 26.8662 38.2949 26.7364 38.472 26.5205L38.4371 26.4391C38.189 25.9157 38.1773 25.3225 38.7744 25.1829C39.3754 25.0394 39.7166 25.5279 39.7205 26.16C44.2065 24.6866 48.3784 25.2837 52.1432 28.1567C54.9581 30.3047 56.571 33.1855 57.0635 36.6983C57.6993 41.2154 56.1717 44.9608 53.0233 48.1285C52.6518 48.5096 52.2259 48.8336 51.7594 49.09C51.678 49.1327 51.5965 49.1715 51.5151 49.2103C51.3479 50.2756 51.283 51.3545 51.3212 52.4323C51.391 52.3974 51.4647 52.3586 51.5461 52.3198Z" fill="#E2F5FC"/>
<path d="M53.0158 48.132C56.1603 44.9643 57.688 41.2188 57.056 36.7018C56.5636 33.1851 54.9506 30.3043 52.1357 28.1602C48.3709 25.2872 44.1951 24.6939 39.713 26.1634C39.7052 26.1673 39.6975 26.1751 39.6897 26.1789C39.3369 26.4038 39.0616 26.8885 38.5537 26.586C38.5227 26.5666 38.4955 26.5511 38.4645 26.5279C38.2879 26.7445 38.0265 26.8745 37.7472 26.8846C37.7356 26.9311 37.7201 26.9737 37.7046 27.0203C37.3827 27.9237 36.4173 28.1602 35.7698 28.703C34.0333 30.112 32.7109 31.965 31.943 34.0653C30.71 37.5005 30.962 40.866 32.6137 44.1151C32.8879 44.6422 33.2057 45.1453 33.5636 45.6195C33.7588 45.8778 33.8476 46.2011 33.8118 46.5229V46.5345C33.8118 46.8719 34.0677 47.0541 34.2732 47.2634C34.9316 47.975 35.6474 48.6312 36.4134 49.2253C36.491 49.2796 36.5685 49.3378 36.6461 49.3921C36.5879 47.8489 36.5284 46.3058 36.4677 44.7626C36.4639 44.7626 36.4639 44.7587 36.46 44.7587C35.1184 43.8786 34.1336 42.7542 33.963 41.0792C33.7498 39.0127 34.6182 37.485 36.3087 36.3722C36.3165 36.3684 36.3243 36.3606 36.332 36.3567C36.2798 35.2875 36.4611 34.2198 36.8632 33.2278C38.1543 29.874 42.0549 27.6717 45.2691 28.4781C45.2733 28.4776 45.2776 28.479 45.2807 28.482C47.4132 28.827 49.1657 29.8002 50.422 31.5876C51.4356 32.9636 51.9362 34.6506 51.8372 36.3567C53.0469 37.2756 54.024 38.3535 54.1829 39.947C54.3962 42.0911 53.4811 43.6576 51.6782 44.7509V44.7703C51.62 46.2514 51.558 47.7325 51.4999 49.2175C51.5852 49.1788 51.6666 49.14 51.7441 49.0974C52.2152 48.843 52.6442 48.5174 53.0158 48.132Z" fill="#CDECF6"/>
<path d="M47.7932 36.1826C49.1231 35.5274 50.4142 35.8802 51.6976 36.3028C51.7441 36.3183 51.7945 36.3338 51.841 36.3493C51.9411 34.6431 51.4404 32.9557 50.4258 31.5803C49.1696 29.7929 47.4171 28.8197 45.2846 28.4746H45.273C44.955 28.5367 44.6022 28.4048 44.2106 28.6297C46.8316 30.8243 47.1922 33.6391 46.6765 36.706C46.7579 36.6673 46.8355 36.6324 46.9169 36.5936C47.2155 36.4579 47.5063 36.3261 47.7932 36.1826Z" fill="#FE6B3C"/>
<path d="M54.1905 39.9435C54.0316 38.3499 53.0545 37.2721 51.8448 36.3532C51.7983 36.3377 51.7478 36.3222 51.7014 36.3066C50.4141 35.884 49.1268 35.5312 47.7969 36.1865C47.51 36.3299 47.2154 36.4656 46.9246 36.6013C46.8431 36.6401 46.7656 36.675 46.6842 36.7138C46.4903 36.9348 46.3119 37.1752 46.1026 37.3806C44.8464 38.6059 44.6719 40.1219 45.0053 41.7271C45.5133 44.1736 48.4987 46.2092 51.6703 44.7591C51.6742 44.7552 51.682 44.7552 51.6858 44.7513C53.4888 43.6541 54.4077 42.0838 54.1905 39.9435ZM49.4487 44.2279C47.9609 44.2122 46.6293 43.3012 46.0757 41.9202C45.5219 40.5393 45.8552 38.9607 46.92 37.9215C47.9848 36.8824 49.5709 36.5875 50.9381 37.1746C52.3051 37.7617 53.1835 39.115 53.1631 40.6027C53.1693 41.5816 52.777 42.521 52.0764 43.2048C51.3758 43.8885 50.4272 44.2579 49.4487 44.2279Z" fill="#FE6142"/>
<path d="M36.3127 36.3647C34.6222 37.4774 33.7537 39.0051 33.9669 41.0717C34.1376 42.7466 35.1224 43.871 36.4639 44.7512C36.4677 44.7512 36.4677 44.7551 36.4717 44.7551C37.2637 45.0009 38.0889 45.1238 38.9182 45.1195C41.8106 45.0769 43.9935 42.1224 43.1755 39.323C42.3883 36.6361 39.5269 34.8719 36.3437 36.3491C36.3326 36.3527 36.3222 36.3579 36.3127 36.3647ZM38.6235 44.2277C37.2992 44.245 36.067 43.5517 35.3942 42.4109C34.7214 41.27 34.7111 39.8563 35.367 38.7057C36.0229 37.5551 37.2448 36.8438 38.5693 36.8416C39.8991 36.8159 41.14 37.5072 41.818 38.6515C42.496 39.7957 42.5064 41.2162 41.8453 42.3702C41.1841 43.5244 39.9536 44.2338 38.6235 44.2277Z" fill="#FE6143"/>
<path d="M42.0003 49.3301C41.8568 49.1866 41.7522 48.9928 41.5118 48.9889C41.4653 50.4312 42.7835 51.9589 44.0824 51.9628C45.4588 51.9666 46.6569 50.598 46.6531 49.0277C46.1335 49.2952 45.8039 49.8458 45.2068 50.0086C44.0165 50.3343 42.9231 50.2529 42.0003 49.3301Z" fill="#070909"/>
<path d="M46.7966 47.6708C45.9242 48.3105 45.0906 48.8572 44.0205 48.8378C42.9736 48.8184 42.1981 48.1671 41.2715 47.535C41.3723 48.1322 41.4421 48.5586 41.5118 48.989C41.7522 48.9968 41.8569 49.1868 42.0004 49.3302C42.9193 50.253 44.0166 50.3344 45.2069 50.0087C45.804 49.8459 46.1335 49.2992 46.6531 49.0278C46.5135 48.5819 46.9827 48.1825 46.7966 47.6708Z" fill="#FDFCFB"/>
<path d="M40.9535 30.9945C40.6791 30.9733 40.4083 31.0668 40.2055 31.2528C40.0026 31.4387 39.886 31.7003 39.8833 31.9755C39.895 32.7664 40.3525 33.1115 40.9612 33.1038C41.5286 33.0985 41.9874 32.6398 41.9926 32.0724C42.0042 31.4676 41.6785 30.9791 40.9535 30.9945Z" fill="#FEA777"/>
<path d="M33.8118 46.5193C33.8476 46.1976 33.7588 45.8743 33.5636 45.616C33.2071 45.1409 32.8894 44.6378 32.6137 44.1116C30.962 40.8624 30.7061 37.497 31.943 34.0617C32.7109 31.9615 34.0333 30.1084 35.7698 28.6995C36.4173 28.1567 37.3828 27.924 37.7046 27.0167C37.7211 26.9722 37.7354 26.927 37.7473 26.881C37.4564 26.691 37.216 26.4623 36.7973 26.7182C34.3612 28.1684 32.4348 30.3385 31.2838 32.9295C30.3417 35.0271 30.14 37.2062 30.2486 39.4472C30.3839 41.9203 31.2577 44.296 32.7572 46.2673C33.0247 46.6318 33.3582 46.8605 33.8118 46.531V46.5193Z" fill="#FDFEFE"/>
<path d="M39.6857 26.1794C39.6935 26.1756 39.7013 26.1677 39.709 26.1639C39.7013 25.5319 39.3639 25.0434 38.763 25.1868C38.1659 25.3303 38.1775 25.9235 38.4256 26.443L38.4605 26.5245C38.489 26.5457 38.5188 26.5651 38.5497 26.5826C39.0576 26.8889 39.3329 26.4004 39.6857 26.1794Z" fill="#FBFDFE"/>
<path d="M53.163 40.6067C53.19 39.6279 52.8201 38.6798 52.1373 37.978C51.4545 37.2762 50.5168 36.8804 49.5377 36.8806C48.2207 36.8588 46.9927 37.5433 46.3186 38.6749C45.6446 39.8066 45.6275 41.2123 46.2739 42.36C46.9203 43.5077 48.1314 44.2218 49.4485 44.2319C50.4267 44.2606 51.3745 43.8907 52.0748 43.2073C52.7751 42.5238 53.1678 41.5852 53.163 40.6067ZM49.6308 41.0099C49.33 41.0398 49.0307 40.9401 48.8079 40.7358C48.5852 40.5315 48.46 40.242 48.4637 39.9398C48.4442 39.625 48.5578 39.3164 48.7768 39.0894C48.9957 38.8623 49.2999 38.7376 49.6152 38.7456C50.2976 38.796 50.6815 39.1953 50.7629 39.9088C50.6698 40.5446 50.3442 40.9983 49.6308 41.0099Z" fill="#FEFEFE"/>
<path d="M38.5693 36.8452C37.2449 36.8474 36.023 37.5587 35.367 38.7093C34.7111 39.8599 34.7215 41.2737 35.3943 42.4145C36.0671 43.5554 37.2992 44.2486 38.6236 44.2314C39.9536 44.2375 41.1842 43.528 41.8453 42.3739C42.5064 41.2198 42.496 39.7994 41.818 38.6551C41.14 37.5109 39.8991 36.8195 38.5693 36.8452ZM38.5732 41.0094C38.2716 41.037 37.9726 40.9347 37.7512 40.7281C37.5299 40.5215 37.4071 40.2303 37.4139 39.9276C37.3972 39.6122 37.5143 39.3044 37.7366 39.08C37.9588 38.8556 38.2654 38.7354 38.5809 38.7489C39.2147 38.7576 39.7216 39.2783 39.7131 39.9121C39.6277 40.5673 39.2711 41.0016 38.5732 41.0094Z" fill="#FEFEFE"/>
<path d="M49.6153 38.7454C49.2996 38.7361 48.9945 38.8604 48.7753 39.0877C48.5561 39.3151 48.4429 39.6244 48.4637 39.9396C48.4593 40.242 48.5843 40.532 48.8072 40.7364C49.0302 40.9408 49.3299 41.0403 49.6308 41.0097C50.3403 40.9981 50.6699 40.5444 50.763 39.9085C50.6815 39.1952 50.2977 38.7958 49.6153 38.7454Z" fill="#090B0B"/>
<path d="M38.5808 38.7493C38.2652 38.7358 37.9587 38.856 37.7364 39.0804C37.5142 39.3049 37.397 39.6126 37.4137 39.928C37.407 40.2307 37.5297 40.522 37.7511 40.7285C37.9725 40.9351 38.2715 41.0374 38.573 41.0097C39.2709 41.002 39.6276 40.5678 39.7129 39.9125C39.647 39.1952 39.2515 38.8036 38.5808 38.7493Z" fill="#090C0C"/>
</g>
<defs>
<filter id="filter0_dd_122_5405" x="0" y="0" width="88" height="88" filterUnits="userSpaceOnUse" color-interpolation-filters="sRGB">
<feFlood flood-opacity="0" result="BackgroundImageFix"/>
<feColorMatrix in="SourceAlpha" type="matrix" values="0 0 0 0 0 0 0 0 0 0 0 0 0 0 0 0 0 0 127 0" result="hardAlpha"/>
<feOffset dx="4" dy="-4"/>
<feGaussianBlur stdDeviation="5"/>
<feComposite in2="hardAlpha" operator="out"/>
<feColorMatrix type="matrix" values="0 0 0 0 0.909804 0 0 0 0 0.843137 0 0 0 0 0.984314 0 0 0 0.8 0"/>
<feBlend mode="normal" in2="BackgroundImageFix" result="effect1_dropShadow_122_5405"/>
<feColorMatrix in="SourceAlpha" type="matrix" values="0 0 0 0 0 0 0 0 0 0 0 0 0 0 0 0 0 0 127 0" result="hardAlpha"/>
<feOffset dx="-4" dy="4"/>
<feGaussianBlur stdDeviation="5"/>
<feComposite in2="hardAlpha" operator="out"/>
<feColorMatrix type="matrix" values="0 0 0 0 0.909804 0 0 0 0 0.843137 0 0 0 0 0.984314 0 0 0 0.8 0"/>
<feBlend mode="normal" in2="effect1_dropShadow_122_5405" result="effect2_dropShadow_122_5405"/>
<feBlend mode="normal" in="SourceGraphic" in2="effect2_dropShadow_122_5405" result="shape"/>
</filter>
<linearGradient id="paint0_linear_122_5405" x1="44" y1="14" x2="44" y2="74" gradientUnits="userSpaceOnUse">
<stop stop-color="#E8D7FB"/>
<stop offset="1" stop-color="#BB88F4"/>
</linearGradient>
</defs>
</svg>
