<svg width="88" height="88" viewBox="0 0 88 88" fill="none" xmlns="http://www.w3.org/2000/svg">
<g filter="url(#filter0_dd_105_32)">
<rect x="14" y="14" width="60" height="60" rx="16" fill="url(#paint0_linear_105_32)"/>
<rect x="14.5" y="14.5" width="59" height="59" rx="15.5" stroke="#E8D7FB"/>
<mask id="path-3-outside-1_105_32" maskUnits="userSpaceOnUse" x="22.3413" y="29.5326" width="44" height="17" fill="black">
<rect fill="white" x="22.3413" y="29.5326" width="44" height="17"/>
<path d="M34.1721 40.3148C34.1721 40.8691 34.232 41.3185 34.3369 41.6481C34.4568 41.9776 34.6065 42.3372 34.8163 42.7267C34.8912 42.8465 34.9211 42.9663 34.9211 43.0712C34.9211 43.221 34.8313 43.3708 34.6365 43.5206L33.6927 44.1498C33.5579 44.2397 33.4231 44.2846 33.3033 44.2846C33.1535 44.2846 33.0036 44.2097 32.8539 44.0749C32.6441 43.8502 32.4643 43.6105 32.3146 43.3708C32.1648 43.1161 32.0149 42.8315 31.8501 42.4869C30.6817 43.8652 29.2136 44.5543 27.4459 44.5543C26.1876 44.5543 25.1839 44.1947 24.4499 43.4757C23.7158 42.7566 23.3413 41.7978 23.3413 40.5995C23.3413 39.3261 23.7907 38.2925 24.7045 37.5135C25.6183 36.7345 26.8317 36.345 28.3747 36.345C28.8841 36.345 29.4084 36.3899 29.9627 36.4649C30.5169 36.5398 31.0862 36.6596 31.6854 36.7944V35.7008C31.6854 34.5623 31.4457 33.7684 30.9813 33.304C30.5019 32.8396 29.693 32.6149 28.5395 32.6149C28.0152 32.6149 27.4759 32.6748 26.9216 32.8096C26.3673 32.9445 25.8281 33.1093 25.3037 33.3189C25.0641 33.4238 24.8843 33.4837 24.7794 33.5137C24.6746 33.5437 24.5997 33.5587 24.5397 33.5587C24.33 33.5587 24.2252 33.4088 24.2252 33.0943V32.3602C24.2252 32.1206 24.2551 31.9408 24.33 31.8359C24.4049 31.731 24.5397 31.6262 24.7495 31.5213C25.2738 31.2517 25.903 31.0269 26.637 30.8472C27.371 30.6525 28.15 30.5626 28.9739 30.5626C30.7566 30.5626 32.0599 30.9671 32.8988 31.776C33.7227 32.5849 34.1422 33.8133 34.1422 35.4612V40.3148H34.1721ZM28.0901 42.5918C28.5844 42.5918 29.0938 42.5019 29.6331 42.3222C30.1723 42.1424 30.6517 41.8128 31.0562 41.3634C31.2959 41.0788 31.4757 40.7642 31.5655 40.4047C31.6554 40.0452 31.7154 39.6107 31.7154 39.1014V38.4722C31.2809 38.3674 30.8165 38.2775 30.3371 38.2176C29.8578 38.1576 29.3934 38.1277 28.929 38.1277C27.9253 38.1277 27.1913 38.3224 26.6969 38.7269C26.2025 39.1313 25.9629 39.7006 25.9629 40.4496C25.9629 41.1537 26.1426 41.678 26.5172 42.0375C26.8767 42.412 27.401 42.5918 28.0901 42.5918ZM40.1194 44.2097C39.8497 44.2097 39.6699 44.1647 39.5501 44.0599C39.4302 43.97 39.3254 43.7603 39.2355 43.4757L35.7151 31.8958C35.6252 31.5962 35.5803 31.4015 35.5803 31.2966C35.5803 31.0569 35.7001 30.9221 35.9398 30.9221H37.4079C37.6925 30.9221 37.8873 30.9671 37.9921 31.0719C38.112 31.1618 38.2018 31.3715 38.2917 31.6561L40.8085 41.5732L43.1454 31.6561C43.2203 31.3565 43.3102 31.1618 43.43 31.0719C43.5499 30.982 43.7596 30.9221 44.0292 30.9221H45.2277C45.5123 30.9221 45.707 30.9671 45.8269 31.0719C45.9467 31.1618 46.0516 31.3715 46.1115 31.6561L48.4784 41.693L51.07 31.6561C51.1599 31.3565 51.2647 31.1618 51.3696 31.0719C51.4895 30.982 51.6842 30.9221 51.9538 30.9221H53.347C53.5867 30.9221 53.7215 31.0419 53.7215 31.2966C53.7215 31.3715 53.7066 31.4464 53.6916 31.5363C53.6766 31.6262 53.6466 31.746 53.5867 31.9108L49.9764 43.4906C49.8866 43.7903 49.7817 43.985 49.6618 44.0749C49.542 44.1647 49.3472 44.2247 49.0926 44.2247H47.8043C47.5197 44.2247 47.3249 44.1797 47.205 44.0749C47.0852 43.97 46.9804 43.7753 46.9204 43.4757L44.5985 33.8133L42.2915 43.4607C42.2166 43.7603 42.1267 43.9551 42.0068 44.0599C41.887 44.1647 41.6773 44.2097 41.4077 44.2097H40.1194ZM59.3691 44.6142C58.5901 44.6142 57.8112 44.5243 57.0622 44.3445C56.3131 44.1647 55.7289 43.97 55.3394 43.7453C55.0997 43.6105 54.935 43.4607 54.875 43.3259C54.8151 43.191 54.7851 43.0412 54.7851 42.9064V42.1424C54.7851 41.8278 54.905 41.678 55.1297 41.678C55.2196 41.678 55.3095 41.693 55.3993 41.723C55.4892 41.7529 55.624 41.8128 55.7738 41.8727C56.2832 42.0975 56.8374 42.2773 57.4217 42.3971C58.0209 42.5169 58.6051 42.5768 59.2043 42.5768C60.1481 42.5768 60.8821 42.412 61.3915 42.0825C61.9008 41.7529 62.1705 41.2735 62.1705 40.6593C62.1705 40.2399 62.0356 39.8954 61.766 39.6107C61.4963 39.3261 60.987 39.0714 60.253 38.8318L58.0808 38.1576C56.9873 37.8131 56.1783 37.3037 55.6839 36.6297C55.1896 35.9705 54.935 35.2365 54.935 34.4575C54.935 33.8283 55.0697 33.274 55.3394 32.7946C55.609 32.3153 55.9686 31.8958 56.418 31.5663C56.8674 31.2217 57.3767 30.9671 57.9759 30.7873C58.5752 30.6075 59.2043 30.5326 59.8635 30.5326C60.193 30.5326 60.5376 30.5476 60.8672 30.5925C61.2117 30.6375 61.5263 30.6974 61.8409 30.7573C62.1405 30.8322 62.4251 30.9071 62.6948 30.997C62.9644 31.0869 63.1741 31.1768 63.324 31.2667C63.5337 31.3865 63.6835 31.5064 63.7734 31.6411C63.8633 31.761 63.9082 31.9258 63.9082 32.1355V32.8396C63.9082 33.1542 63.7883 33.3189 63.5636 33.3189C63.4438 33.3189 63.2491 33.2591 62.9944 33.1392C62.1405 32.7497 61.1818 32.555 60.1182 32.555C59.2643 32.555 58.5901 32.6898 58.1258 32.9744C57.6614 33.2591 57.4217 33.6935 57.4217 34.3077C57.4217 34.7271 57.5715 35.0866 57.8711 35.3713C58.1707 35.6559 58.725 35.9405 59.519 36.1952L61.6462 36.8693C62.7247 37.2139 63.5037 37.6933 63.9681 38.3075C64.4325 38.9217 64.6572 39.6257 64.6572 40.4047C64.6572 41.0489 64.5224 41.6331 64.2677 42.1424C63.9981 42.6517 63.6385 43.1011 63.1741 43.4607C62.7098 43.8352 62.1555 44.1048 61.5113 44.2996C60.8372 44.5093 60.1331 44.6142 59.3691 44.6142Z"/>
</mask>
<path d="M34.1721 40.3148C34.1721 40.8691 34.232 41.3185 34.3369 41.6481C34.4568 41.9776 34.6065 42.3372 34.8163 42.7267C34.8912 42.8465 34.9211 42.9663 34.9211 43.0712C34.9211 43.221 34.8313 43.3708 34.6365 43.5206L33.6927 44.1498C33.5579 44.2397 33.4231 44.2846 33.3033 44.2846C33.1535 44.2846 33.0036 44.2097 32.8539 44.0749C32.6441 43.8502 32.4643 43.6105 32.3146 43.3708C32.1648 43.1161 32.0149 42.8315 31.8501 42.4869C30.6817 43.8652 29.2136 44.5543 27.4459 44.5543C26.1876 44.5543 25.1839 44.1947 24.4499 43.4757C23.7158 42.7566 23.3413 41.7978 23.3413 40.5995C23.3413 39.3261 23.7907 38.2925 24.7045 37.5135C25.6183 36.7345 26.8317 36.345 28.3747 36.345C28.8841 36.345 29.4084 36.3899 29.9627 36.4649C30.5169 36.5398 31.0862 36.6596 31.6854 36.7944V35.7008C31.6854 34.5623 31.4457 33.7684 30.9813 33.304C30.5019 32.8396 29.693 32.6149 28.5395 32.6149C28.0152 32.6149 27.4759 32.6748 26.9216 32.8096C26.3673 32.9445 25.8281 33.1093 25.3037 33.3189C25.0641 33.4238 24.8843 33.4837 24.7794 33.5137C24.6746 33.5437 24.5997 33.5587 24.5397 33.5587C24.33 33.5587 24.2252 33.4088 24.2252 33.0943V32.3602C24.2252 32.1206 24.2551 31.9408 24.33 31.8359C24.4049 31.731 24.5397 31.6262 24.7495 31.5213C25.2738 31.2517 25.903 31.0269 26.637 30.8472C27.371 30.6525 28.15 30.5626 28.9739 30.5626C30.7566 30.5626 32.0599 30.9671 32.8988 31.776C33.7227 32.5849 34.1422 33.8133 34.1422 35.4612V40.3148H34.1721ZM28.0901 42.5918C28.5844 42.5918 29.0938 42.5019 29.6331 42.3222C30.1723 42.1424 30.6517 41.8128 31.0562 41.3634C31.2959 41.0788 31.4757 40.7642 31.5655 40.4047C31.6554 40.0452 31.7154 39.6107 31.7154 39.1014V38.4722C31.2809 38.3674 30.8165 38.2775 30.3371 38.2176C29.8578 38.1576 29.3934 38.1277 28.929 38.1277C27.9253 38.1277 27.1913 38.3224 26.6969 38.7269C26.2025 39.1313 25.9629 39.7006 25.9629 40.4496C25.9629 41.1537 26.1426 41.678 26.5172 42.0375C26.8767 42.412 27.401 42.5918 28.0901 42.5918ZM40.1194 44.2097C39.8497 44.2097 39.6699 44.1647 39.5501 44.0599C39.4302 43.97 39.3254 43.7603 39.2355 43.4757L35.7151 31.8958C35.6252 31.5962 35.5803 31.4015 35.5803 31.2966C35.5803 31.0569 35.7001 30.9221 35.9398 30.9221H37.4079C37.6925 30.9221 37.8873 30.9671 37.9921 31.0719C38.112 31.1618 38.2018 31.3715 38.2917 31.6561L40.8085 41.5732L43.1454 31.6561C43.2203 31.3565 43.3102 31.1618 43.43 31.0719C43.5499 30.982 43.7596 30.9221 44.0292 30.9221H45.2277C45.5123 30.9221 45.707 30.9671 45.8269 31.0719C45.9467 31.1618 46.0516 31.3715 46.1115 31.6561L48.4784 41.693L51.07 31.6561C51.1599 31.3565 51.2647 31.1618 51.3696 31.0719C51.4895 30.982 51.6842 30.9221 51.9538 30.9221H53.347C53.5867 30.9221 53.7215 31.0419 53.7215 31.2966C53.7215 31.3715 53.7066 31.4464 53.6916 31.5363C53.6766 31.6262 53.6466 31.746 53.5867 31.9108L49.9764 43.4906C49.8866 43.7903 49.7817 43.985 49.6618 44.0749C49.542 44.1647 49.3472 44.2247 49.0926 44.2247H47.8043C47.5197 44.2247 47.3249 44.1797 47.205 44.0749C47.0852 43.97 46.9804 43.7753 46.9204 43.4757L44.5985 33.8133L42.2915 43.4607C42.2166 43.7603 42.1267 43.9551 42.0068 44.0599C41.887 44.1647 41.6773 44.2097 41.4077 44.2097H40.1194ZM59.3691 44.6142C58.5901 44.6142 57.8112 44.5243 57.0622 44.3445C56.3131 44.1647 55.7289 43.97 55.3394 43.7453C55.0997 43.6105 54.935 43.4607 54.875 43.3259C54.8151 43.191 54.7851 43.0412 54.7851 42.9064V42.1424C54.7851 41.8278 54.905 41.678 55.1297 41.678C55.2196 41.678 55.3095 41.693 55.3993 41.723C55.4892 41.7529 55.624 41.8128 55.7738 41.8727C56.2832 42.0975 56.8374 42.2773 57.4217 42.3971C58.0209 42.5169 58.6051 42.5768 59.2043 42.5768C60.1481 42.5768 60.8821 42.412 61.3915 42.0825C61.9008 41.7529 62.1705 41.2735 62.1705 40.6593C62.1705 40.2399 62.0356 39.8954 61.766 39.6107C61.4963 39.3261 60.987 39.0714 60.253 38.8318L58.0808 38.1576C56.9873 37.8131 56.1783 37.3037 55.6839 36.6297C55.1896 35.9705 54.935 35.2365 54.935 34.4575C54.935 33.8283 55.0697 33.274 55.3394 32.7946C55.609 32.3153 55.9686 31.8958 56.418 31.5663C56.8674 31.2217 57.3767 30.9671 57.9759 30.7873C58.5752 30.6075 59.2043 30.5326 59.8635 30.5326C60.193 30.5326 60.5376 30.5476 60.8672 30.5925C61.2117 30.6375 61.5263 30.6974 61.8409 30.7573C62.1405 30.8322 62.4251 30.9071 62.6948 30.997C62.9644 31.0869 63.1741 31.1768 63.324 31.2667C63.5337 31.3865 63.6835 31.5064 63.7734 31.6411C63.8633 31.761 63.9082 31.9258 63.9082 32.1355V32.8396C63.9082 33.1542 63.7883 33.3189 63.5636 33.3189C63.4438 33.3189 63.2491 33.2591 62.9944 33.1392C62.1405 32.7497 61.1818 32.555 60.1182 32.555C59.2643 32.555 58.5901 32.6898 58.1258 32.9744C57.6614 33.2591 57.4217 33.6935 57.4217 34.3077C57.4217 34.7271 57.5715 35.0866 57.8711 35.3713C58.1707 35.6559 58.725 35.9405 59.519 36.1952L61.6462 36.8693C62.7247 37.2139 63.5037 37.6933 63.9681 38.3075C64.4325 38.9217 64.6572 39.6257 64.6572 40.4047C64.6572 41.0489 64.5224 41.6331 64.2677 42.1424C63.9981 42.6517 63.6385 43.1011 63.1741 43.4607C62.7098 43.8352 62.1555 44.1048 61.5113 44.2996C60.8372 44.5093 60.1331 44.6142 59.3691 44.6142Z" fill="#252F3E"/>
<path d="M34.1721 40.3148C34.1721 40.8691 34.232 41.3185 34.3369 41.6481C34.4568 41.9776 34.6065 42.3372 34.8163 42.7267C34.8912 42.8465 34.9211 42.9663 34.9211 43.0712C34.9211 43.221 34.8313 43.3708 34.6365 43.5206L33.6927 44.1498C33.5579 44.2397 33.4231 44.2846 33.3033 44.2846C33.1535 44.2846 33.0036 44.2097 32.8539 44.0749C32.6441 43.8502 32.4643 43.6105 32.3146 43.3708C32.1648 43.1161 32.0149 42.8315 31.8501 42.4869C30.6817 43.8652 29.2136 44.5543 27.4459 44.5543C26.1876 44.5543 25.1839 44.1947 24.4499 43.4757C23.7158 42.7566 23.3413 41.7978 23.3413 40.5995C23.3413 39.3261 23.7907 38.2925 24.7045 37.5135C25.6183 36.7345 26.8317 36.345 28.3747 36.345C28.8841 36.345 29.4084 36.3899 29.9627 36.4649C30.5169 36.5398 31.0862 36.6596 31.6854 36.7944V35.7008C31.6854 34.5623 31.4457 33.7684 30.9813 33.304C30.5019 32.8396 29.693 32.6149 28.5395 32.6149C28.0152 32.6149 27.4759 32.6748 26.9216 32.8096C26.3673 32.9445 25.8281 33.1093 25.3037 33.3189C25.0641 33.4238 24.8843 33.4837 24.7794 33.5137C24.6746 33.5437 24.5997 33.5587 24.5397 33.5587C24.33 33.5587 24.2252 33.4088 24.2252 33.0943V32.3602C24.2252 32.1206 24.2551 31.9408 24.33 31.8359C24.4049 31.731 24.5397 31.6262 24.7495 31.5213C25.2738 31.2517 25.903 31.0269 26.637 30.8472C27.371 30.6525 28.15 30.5626 28.9739 30.5626C30.7566 30.5626 32.0599 30.9671 32.8988 31.776C33.7227 32.5849 34.1422 33.8133 34.1422 35.4612V40.3148H34.1721ZM28.0901 42.5918C28.5844 42.5918 29.0938 42.5019 29.6331 42.3222C30.1723 42.1424 30.6517 41.8128 31.0562 41.3634C31.2959 41.0788 31.4757 40.7642 31.5655 40.4047C31.6554 40.0452 31.7154 39.6107 31.7154 39.1014V38.4722C31.2809 38.3674 30.8165 38.2775 30.3371 38.2176C29.8578 38.1576 29.3934 38.1277 28.929 38.1277C27.9253 38.1277 27.1913 38.3224 26.6969 38.7269C26.2025 39.1313 25.9629 39.7006 25.9629 40.4496C25.9629 41.1537 26.1426 41.678 26.5172 42.0375C26.8767 42.412 27.401 42.5918 28.0901 42.5918ZM40.1194 44.2097C39.8497 44.2097 39.6699 44.1647 39.5501 44.0599C39.4302 43.97 39.3254 43.7603 39.2355 43.4757L35.7151 31.8958C35.6252 31.5962 35.5803 31.4015 35.5803 31.2966C35.5803 31.0569 35.7001 30.9221 35.9398 30.9221H37.4079C37.6925 30.9221 37.8873 30.9671 37.9921 31.0719C38.112 31.1618 38.2018 31.3715 38.2917 31.6561L40.8085 41.5732L43.1454 31.6561C43.2203 31.3565 43.3102 31.1618 43.43 31.0719C43.5499 30.982 43.7596 30.9221 44.0292 30.9221H45.2277C45.5123 30.9221 45.707 30.9671 45.8269 31.0719C45.9467 31.1618 46.0516 31.3715 46.1115 31.6561L48.4784 41.693L51.07 31.6561C51.1599 31.3565 51.2647 31.1618 51.3696 31.0719C51.4895 30.982 51.6842 30.9221 51.9538 30.9221H53.347C53.5867 30.9221 53.7215 31.0419 53.7215 31.2966C53.7215 31.3715 53.7066 31.4464 53.6916 31.5363C53.6766 31.6262 53.6466 31.746 53.5867 31.9108L49.9764 43.4906C49.8866 43.7903 49.7817 43.985 49.6618 44.0749C49.542 44.1647 49.3472 44.2247 49.0926 44.2247H47.8043C47.5197 44.2247 47.3249 44.1797 47.205 44.0749C47.0852 43.97 46.9804 43.7753 46.9204 43.4757L44.5985 33.8133L42.2915 43.4607C42.2166 43.7603 42.1267 43.9551 42.0068 44.0599C41.887 44.1647 41.6773 44.2097 41.4077 44.2097H40.1194ZM59.3691 44.6142C58.5901 44.6142 57.8112 44.5243 57.0622 44.3445C56.3131 44.1647 55.7289 43.97 55.3394 43.7453C55.0997 43.6105 54.935 43.4607 54.875 43.3259C54.8151 43.191 54.7851 43.0412 54.7851 42.9064V42.1424C54.7851 41.8278 54.905 41.678 55.1297 41.678C55.2196 41.678 55.3095 41.693 55.3993 41.723C55.4892 41.7529 55.624 41.8128 55.7738 41.8727C56.2832 42.0975 56.8374 42.2773 57.4217 42.3971C58.0209 42.5169 58.6051 42.5768 59.2043 42.5768C60.1481 42.5768 60.8821 42.412 61.3915 42.0825C61.9008 41.7529 62.1705 41.2735 62.1705 40.6593C62.1705 40.2399 62.0356 39.8954 61.766 39.6107C61.4963 39.3261 60.987 39.0714 60.253 38.8318L58.0808 38.1576C56.9873 37.8131 56.1783 37.3037 55.6839 36.6297C55.1896 35.9705 54.935 35.2365 54.935 34.4575C54.935 33.8283 55.0697 33.274 55.3394 32.7946C55.609 32.3153 55.9686 31.8958 56.418 31.5663C56.8674 31.2217 57.3767 30.9671 57.9759 30.7873C58.5752 30.6075 59.2043 30.5326 59.8635 30.5326C60.193 30.5326 60.5376 30.5476 60.8672 30.5925C61.2117 30.6375 61.5263 30.6974 61.8409 30.7573C62.1405 30.8322 62.4251 30.9071 62.6948 30.997C62.9644 31.0869 63.1741 31.1768 63.324 31.2667C63.5337 31.3865 63.6835 31.5064 63.7734 31.6411C63.8633 31.761 63.9082 31.9258 63.9082 32.1355V32.8396C63.9082 33.1542 63.7883 33.3189 63.5636 33.3189C63.4438 33.3189 63.2491 33.2591 62.9944 33.1392C62.1405 32.7497 61.1818 32.555 60.1182 32.555C59.2643 32.555 58.5901 32.6898 58.1258 32.9744C57.6614 33.2591 57.4217 33.6935 57.4217 34.3077C57.4217 34.7271 57.5715 35.0866 57.8711 35.3713C58.1707 35.6559 58.725 35.9405 59.519 36.1952L61.6462 36.8693C62.7247 37.2139 63.5037 37.6933 63.9681 38.3075C64.4325 38.9217 64.6572 39.6257 64.6572 40.4047C64.6572 41.0489 64.5224 41.6331 64.2677 42.1424C63.9981 42.6517 63.6385 43.1011 63.1741 43.4607C62.7098 43.8352 62.1555 44.1048 61.5113 44.2996C60.8372 44.5093 60.1331 44.6142 59.3691 44.6142Z" stroke="#F9F9F9" stroke-width="2" mask="url(#path-3-outside-1_105_32)"/>
<path d="M62.2007 51.8944C57.2721 55.5347 50.1115 57.4671 43.9545 57.4671C35.3258 57.4671 27.551 54.2763 21.6787 48.9732C21.2143 48.5538 21.6338 47.9845 22.188 48.3141C28.5397 51.9993 36.3744 54.2314 44.4789 54.2314C49.9467 54.2314 55.9538 53.0928 61.4816 50.7559C62.3055 50.3814 63.0096 51.2952 62.2007 51.8944ZM64.253 49.5575C63.6238 48.7485 60.0884 49.168 58.4855 49.3627C58.0061 49.4226 57.9312 49.0032 58.3656 48.6886C61.182 46.7112 65.8109 47.2804 66.3502 47.9396C66.8895 48.6137 66.2004 53.2427 63.5638 55.4598C63.1594 55.8043 62.7699 55.6245 62.9496 55.1751C63.5489 53.6921 64.8821 50.3514 64.253 49.5575Z" fill="#FF9900"/>
</g>
<defs>
<filter id="filter0_dd_105_32" x="0" y="0" width="88" height="88" filterUnits="userSpaceOnUse" color-interpolation-filters="sRGB">
<feFlood flood-opacity="0" result="BackgroundImageFix"/>
<feColorMatrix in="SourceAlpha" type="matrix" values="0 0 0 0 0 0 0 0 0 0 0 0 0 0 0 0 0 0 127 0" result="hardAlpha"/>
<feOffset dx="4" dy="-4"/>
<feGaussianBlur stdDeviation="5"/>
<feComposite in2="hardAlpha" operator="out"/>
<feColorMatrix type="matrix" values="0 0 0 0 0.909804 0 0 0 0 0.843137 0 0 0 0 0.984314 0 0 0 0.8 0"/>
<feBlend mode="normal" in2="BackgroundImageFix" result="effect1_dropShadow_105_32"/>
<feColorMatrix in="SourceAlpha" type="matrix" values="0 0 0 0 0 0 0 0 0 0 0 0 0 0 0 0 0 0 127 0" result="hardAlpha"/>
<feOffset dx="-4" dy="4"/>
<feGaussianBlur stdDeviation="5"/>
<feComposite in2="hardAlpha" operator="out"/>
<feColorMatrix type="matrix" values="0 0 0 0 0.909804 0 0 0 0 0.843137 0 0 0 0 0.984314 0 0 0 0.8 0"/>
<feBlend mode="normal" in2="effect1_dropShadow_105_32" result="effect2_dropShadow_105_32"/>
<feBlend mode="normal" in="SourceGraphic" in2="effect2_dropShadow_105_32" result="shape"/>
</filter>
<linearGradient id="paint0_linear_105_32" x1="44" y1="14" x2="44" y2="74" gradientUnits="userSpaceOnUse">
<stop stop-color="#E8D7FB"/>
<stop offset="1" stop-color="#BB88F4"/>
</linearGradient>
</defs>
</svg>
