<svg width="88" height="88" viewBox="0 0 88 88" fill="none" xmlns="http://www.w3.org/2000/svg">
<g filter="url(#filter0_dd_122_3684)">
<rect x="14" y="14" width="60" height="60" rx="16" fill="url(#paint0_linear_122_3684)"/>
<rect x="14.5" y="14.5" width="59" height="59" rx="15.5" stroke="#E8D7FB"/>
<g clip-path="url(#clip0_122_3684)">
<path d="M64.6573 41.357C64.5828 40.6001 64.4588 39.7315 64.2106 38.7637C63.9624 37.8083 63.5902 36.7536 63.0442 35.6616C62.4983 34.5698 61.791 33.4406 60.8728 32.3363C60.513 31.902 60.1159 31.4801 59.694 31.0707C60.3268 28.5518 58.9247 26.368 58.9247 26.368C56.5051 26.219 54.9665 27.1249 54.3958 27.5343C54.2965 27.4971 54.2096 27.4474 54.1104 27.4103C53.7009 27.2489 53.279 27.0876 52.8323 26.9511C52.398 26.8146 51.9513 26.6905 51.4922 26.5789C51.0331 26.4672 50.574 26.3803 50.1025 26.3059C50.0156 26.2935 49.9412 26.2811 49.8544 26.2687C48.7997 22.8937 45.772 21.4791 45.772 21.4791C42.3846 23.6257 41.7518 26.6285 41.7518 26.6285C41.7518 26.6285 41.7394 26.6905 41.7146 26.8022C41.5284 26.8519 41.3423 26.9139 41.1562 26.9635C40.8957 27.038 40.6351 27.1373 40.3869 27.2365C40.1263 27.3358 39.8782 27.4351 39.6176 27.5467C39.1088 27.7701 38.6001 28.0182 38.1038 28.2912C37.6199 28.5642 37.1484 28.862 36.6892 29.1722C36.6272 29.1474 36.5652 29.1226 36.5652 29.1226C31.8749 27.3358 27.7181 29.4824 27.7181 29.4824C27.3335 34.4705 29.5918 37.6097 30.0385 38.1805C29.9268 38.4907 29.8275 38.801 29.7283 39.1111C29.3809 40.2403 29.1203 41.3943 28.959 42.5978C28.9342 42.7716 28.9094 42.9453 28.8969 43.119C24.5541 45.2656 23.276 49.6457 23.276 49.6457C26.8868 53.8024 31.1056 54.063 31.1056 54.063L31.118 54.0506C31.6515 55.006 32.272 55.9118 32.9668 56.768C33.2646 57.1278 33.5624 57.4628 33.885 57.7979C32.5698 61.5699 34.0711 64.6968 34.0711 64.6968C38.0914 64.8457 40.7343 62.9349 41.2927 62.5005C41.6898 62.6371 42.0992 62.7611 42.5087 62.8604C43.7495 63.183 45.0152 63.3691 46.2808 63.4188C46.591 63.4312 46.9136 63.4436 47.2238 63.4312H47.6705L47.869 63.4188V63.4312C49.7675 66.1361 53.0929 66.5208 53.0929 66.5208C55.4629 64.0267 55.5993 61.5451 55.5993 61.0116V60.9743V60.8999V60.7882C56.0956 60.4408 56.5671 60.0685 57.0139 59.6591C57.9569 58.8029 58.7882 57.8227 59.4831 56.768C59.5451 56.6687 59.6072 56.5695 59.6692 56.4702C62.3494 56.6191 64.2478 54.8075 64.2478 54.8075C63.8011 52.0157 62.2129 50.6507 61.8778 50.3902C61.8778 50.3902 61.8654 50.3778 61.8407 50.3654C61.8158 50.3529 61.8158 50.3405 61.8158 50.3405C61.8034 50.3281 61.7786 50.3157 61.7538 50.3033C61.7662 50.1296 61.7786 49.9683 61.791 49.7946C61.8158 49.4968 61.8158 49.1866 61.8158 48.8888V48.4917V48.4173L61.8034 48.2311L61.791 47.983C61.791 47.8961 61.7786 47.8217 61.7662 47.7472C61.7538 47.6728 61.7538 47.5859 61.7414 47.5115L61.7166 47.2757L61.6793 47.04C61.6297 46.7298 61.5801 46.432 61.5056 46.1218C61.2202 44.9182 60.7487 43.7766 60.1407 42.7467C59.5203 41.7169 58.751 40.8111 57.87 40.0418C57.0015 39.2725 56.0212 38.652 55.0037 38.1929C53.9738 37.7338 52.9067 37.436 51.8396 37.2995C51.3061 37.2251 50.7725 37.2003 50.239 37.2127H49.9908H49.9288H49.8419L49.6434 37.2251C49.569 37.2251 49.4945 37.2375 49.4324 37.2375C49.1595 37.2623 48.8865 37.2995 48.6259 37.3492C47.5588 37.5477 46.5538 37.9324 45.6728 38.4659C44.7918 38.9995 44.0225 39.6571 43.4021 40.4016C42.7817 41.1461 42.2978 41.9774 41.9628 42.8336C41.6277 43.6897 41.4416 44.5832 41.392 45.4393C41.3796 45.6503 41.3796 45.8736 41.3796 46.0845V46.2459L41.392 46.4196C41.4044 46.5188 41.4044 46.6305 41.4168 46.7298C41.454 47.164 41.5409 47.5859 41.6526 47.983C41.8883 48.7895 42.2605 49.5216 42.7197 50.142C43.1787 50.7624 43.7371 51.2712 44.3203 51.6806C44.9035 52.0777 45.5363 52.363 46.1567 52.5492C46.7771 52.7353 47.3975 52.8098 47.9807 52.8098H48.1916H48.3033C48.3405 52.8098 48.3778 52.8098 48.415 52.7974C48.477 52.7974 48.5391 52.785 48.6011 52.785C48.6135 52.785 48.6383 52.785 48.6507 52.7725L48.7128 52.7601C48.75 52.7601 48.7872 52.7477 48.8245 52.7477C48.8989 52.7353 48.9609 52.7229 49.0354 52.7105C49.1099 52.6981 49.1719 52.6857 49.2339 52.6608C49.3704 52.636 49.4945 52.5864 49.6186 52.5492C49.8668 52.4623 50.1149 52.363 50.3259 52.2514C50.5492 52.1397 50.7477 52.0032 50.9463 51.8791C50.9959 51.8419 51.0579 51.8047 51.1076 51.7551C51.3061 51.5937 51.3433 51.2959 51.182 51.0974C51.0455 50.9237 50.7974 50.8741 50.5988 50.9858C50.5492 51.0106 50.4996 51.0354 50.4499 51.0602C50.2762 51.1471 50.1025 51.2215 49.9164 51.2836C49.7302 51.3456 49.5317 51.3952 49.3332 51.4325C49.2339 51.4449 49.1346 51.4573 49.023 51.4697C48.9734 51.4697 48.9237 51.4821 48.8617 51.4821H48.7128H48.5639C48.5019 51.4821 48.4398 51.4821 48.3778 51.4697H48.3653H48.3033C48.2785 51.4697 48.2413 51.4697 48.2165 51.4573C48.1544 51.4449 48.1048 51.4449 48.0428 51.4325C47.5836 51.3704 47.1245 51.2339 46.6903 51.0354C46.2435 50.8369 45.8217 50.5639 45.437 50.2165C45.0524 49.869 44.7174 49.4595 44.4568 48.988C44.1962 48.5165 44.0101 47.9954 43.9232 47.4494C43.886 47.1765 43.8612 46.8911 43.8736 46.6181C43.8736 46.5436 43.886 46.4692 43.886 46.3947V46.3823V46.2955C43.886 46.2582 43.8984 46.221 43.8984 46.1838C43.9108 46.0349 43.9356 45.886 43.9605 45.7371C44.1714 44.5459 44.767 43.3795 45.6852 42.4986C45.921 42.2752 46.1691 42.0767 46.4297 41.8906C46.6903 41.7045 46.9757 41.5431 47.2734 41.4067C47.5712 41.2701 47.869 41.1585 48.1916 41.0716C48.5019 40.9848 48.8245 40.9352 49.1595 40.8979C49.3208 40.8855 49.4821 40.8731 49.6558 40.8731H49.7675H49.9908H50.0032H50.0405L50.177 40.8855C50.5368 40.9103 50.8842 40.9599 51.2317 41.0468C51.9265 41.1957 52.6089 41.4563 53.2418 41.8037C54.5074 42.511 55.5869 43.6029 56.2446 44.9182C56.5796 45.5758 56.8153 46.283 56.927 47.0152C56.9518 47.2013 56.9766 47.3874 56.989 47.5735L57.0015 47.71L57.0139 47.8465V47.983V48.1195V48.38C57.0139 48.4669 57.0015 48.6158 57.0015 48.7026C56.989 48.9012 56.9642 49.1121 56.9394 49.3107C56.9146 49.5092 56.8774 49.7077 56.8401 49.9063C56.8029 50.1048 56.7533 50.3033 56.7037 50.4895C56.6044 50.8741 56.4803 51.2588 56.3314 51.6434C56.0336 52.3879 55.6366 53.1076 55.1651 53.7652C54.2096 55.0805 52.9067 56.1476 51.4178 56.83C50.6733 57.165 49.8916 57.4132 49.0851 57.5373C48.688 57.6117 48.2785 57.649 47.869 57.6613H47.2982H47.2858H47.2486C47.0253 57.6613 46.8143 57.6489 46.591 57.6242C45.7224 57.5621 44.8663 57.4008 44.0225 57.165C43.1912 56.9293 42.3846 56.5942 41.6153 56.1972C40.0891 55.3783 38.7118 54.2615 37.6447 52.909C37.1112 52.239 36.6397 51.5069 36.255 50.75C35.8703 49.9931 35.5601 49.1866 35.3368 48.38C35.1134 47.5611 34.9769 46.7298 34.9149 45.886L34.9025 45.7247V45.0174V45.005V44.9306V44.6204C34.9149 44.2109 34.9521 43.7766 35.0018 43.3547C35.0514 42.9329 35.1258 42.4986 35.2127 42.0767C35.2996 41.6548 35.3988 41.2329 35.5229 40.8111C35.7587 39.9797 36.0565 39.1732 36.4039 38.4163C37.1112 36.9025 38.0293 35.55 39.1337 34.4705C39.4067 34.1975 39.692 33.9493 39.9898 33.7012C40.2876 33.4654 40.5979 33.2421 40.9204 33.0311C41.2306 32.8202 41.5657 32.6341 41.9007 32.4604C42.062 32.3735 42.2357 32.2866 42.4094 32.2122C42.4963 32.175 42.5831 32.1378 42.67 32.1005C42.7569 32.0633 42.8437 32.0261 42.9306 31.9888C43.278 31.84 43.6378 31.7159 44.0101 31.6042C44.0969 31.5794 44.1962 31.5546 44.2831 31.5173C44.3699 31.4925 44.4692 31.4677 44.5561 31.4429C44.7422 31.3933 44.9283 31.3436 45.1144 31.3064C45.2013 31.2816 45.3005 31.2692 45.3998 31.2444C45.4991 31.2195 45.5859 31.2071 45.6852 31.1823C45.7845 31.1699 45.8713 31.1451 45.9706 31.1327L46.1071 31.1079L46.256 31.0831C46.3552 31.0707 46.4421 31.0582 46.5413 31.0458C46.653 31.0334 46.7523 31.021 46.864 31.0086C46.9508 30.9962 47.0997 30.9838 47.1866 30.9714C47.2486 30.959 47.3231 30.959 47.3851 30.9465L47.5216 30.9341L47.5836 30.9217H47.6581C47.7698 30.9093 47.869 30.9093 47.9807 30.8969L48.142 30.8845H48.1544H48.2661C48.3529 30.8845 48.4522 30.8721 48.5391 30.8721C48.8989 30.8597 49.2712 30.8597 49.631 30.8721C50.3507 30.8969 51.0579 30.9838 51.7404 31.1079C53.1177 31.3685 54.4082 31.8027 55.5869 32.3859C56.7657 32.9567 57.808 33.664 58.7262 34.4333C58.7882 34.4829 58.8379 34.5325 58.8999 34.5822C58.9495 34.6318 59.0116 34.6814 59.0612 34.7311C59.1729 34.8303 59.2721 34.9296 59.3838 35.0289C59.4955 35.1281 59.5948 35.2274 59.694 35.3267C59.7933 35.4259 59.8926 35.5252 59.9918 35.6369C60.3765 36.0463 60.7363 36.4558 61.0589 36.8777C61.7041 37.709 62.2253 38.5528 62.6348 39.3469C62.6596 39.3965 62.6844 39.4462 62.7092 39.4958C62.734 39.5454 62.7588 39.5951 62.7837 39.6447C62.8333 39.744 62.8829 39.8432 62.9201 39.9425C62.9698 40.0418 63.007 40.1286 63.0566 40.2279C63.0939 40.3271 63.1435 40.414 63.1807 40.5133C63.3296 40.8855 63.4785 41.2453 63.5902 41.5804C63.7763 42.1263 63.9128 42.6102 64.0245 43.0321C64.0617 43.2058 64.223 43.3175 64.3967 43.2927C64.5828 43.2803 64.7194 43.1314 64.7194 42.9453C64.7318 42.4986 64.7194 41.965 64.6573 41.357Z" fill="url(#paint1_linear_122_3684)" stroke="white"/>
</g>
</g>
<defs>
<filter id="filter0_dd_122_3684" x="0" y="0" width="88" height="88" filterUnits="userSpaceOnUse" color-interpolation-filters="sRGB">
<feFlood flood-opacity="0" result="BackgroundImageFix"/>
<feColorMatrix in="SourceAlpha" type="matrix" values="0 0 0 0 0 0 0 0 0 0 0 0 0 0 0 0 0 0 127 0" result="hardAlpha"/>
<feOffset dx="4" dy="-4"/>
<feGaussianBlur stdDeviation="5"/>
<feComposite in2="hardAlpha" operator="out"/>
<feColorMatrix type="matrix" values="0 0 0 0 0.909804 0 0 0 0 0.843137 0 0 0 0 0.984314 0 0 0 0.8 0"/>
<feBlend mode="normal" in2="BackgroundImageFix" result="effect1_dropShadow_122_3684"/>
<feColorMatrix in="SourceAlpha" type="matrix" values="0 0 0 0 0 0 0 0 0 0 0 0 0 0 0 0 0 0 127 0" result="hardAlpha"/>
<feOffset dx="-4" dy="4"/>
<feGaussianBlur stdDeviation="5"/>
<feComposite in2="hardAlpha" operator="out"/>
<feColorMatrix type="matrix" values="0 0 0 0 0.909804 0 0 0 0 0.843137 0 0 0 0 0.984314 0 0 0 0.8 0"/>
<feBlend mode="normal" in2="effect1_dropShadow_122_3684" result="effect2_dropShadow_122_3684"/>
<feBlend mode="normal" in="SourceGraphic" in2="effect2_dropShadow_122_3684" result="shape"/>
</filter>
<linearGradient id="paint0_linear_122_3684" x1="44" y1="14" x2="44" y2="74" gradientUnits="userSpaceOnUse">
<stop stop-color="#E8D7FB"/>
<stop offset="1" stop-color="#BB88F4"/>
</linearGradient>
<linearGradient id="paint1_linear_122_3684" x1="2095.44" y1="5536.83" x2="2095.44" y2="1424.03" gradientUnits="userSpaceOnUse">
<stop stop-color="#FFF100"/>
<stop offset="1" stop-color="#F05A28"/>
</linearGradient>
<clipPath id="clip0_122_3684">
<rect width="46" height="46" fill="white" transform="translate(21 21)"/>
</clipPath>
</defs>
</svg>
