<svg width="88" height="88" viewBox="0 0 88 88" fill="none" xmlns="http://www.w3.org/2000/svg">
<g filter="url(#filter0_dd_122_111)">
<rect x="14" y="14" width="60" height="60" rx="16" fill="url(#paint0_linear_122_111)"/>
<rect x="14.5" y="14.5" width="59" height="59" rx="15.5" stroke="#E8D7FB"/>
<path d="M33.7166 32.201L33.5934 32.0843C33.5793 32.0709 33.5652 32.0574 33.5511 32.0439C32.3976 30.9357 31.5049 29.6543 30.9656 28.1397C30.821 27.7334 30.7103 27.3194 30.7191 26.8838L30.7209 26.8269C30.7229 26.7835 30.7227 26.7401 30.7257 26.6968C30.7664 26.1075 31.1608 25.8097 31.7368 25.9493C31.9184 25.9963 32.0942 26.0636 32.2608 26.1501C32.8698 26.4555 33.3699 26.9021 33.8291 27.3942L33.8764 27.4452C34.7151 28.3377 35.3876 29.3728 35.8625 30.5017C35.8728 30.5286 35.8847 30.5549 35.8981 30.5804C35.9002 30.5843 35.9032 30.5878 35.9074 30.5917L35.9396 30.6193C35.9426 30.6219 35.9458 30.6247 35.9492 30.6279C38.197 29.2793 40.7396 28.4992 43.3569 28.3549L43.3503 28.3216L43.3333 28.2328C43.3297 28.2144 43.3261 28.1968 43.3221 28.1795L43.3159 28.1537C43.0489 27.0486 42.9669 25.9068 43.0733 24.7748C43.1202 24.0965 43.2569 23.4273 43.4797 22.7849C43.5875 22.4466 43.7573 22.1312 43.9804 21.855C44.0647 21.7563 44.162 21.6695 44.2697 21.597C44.4893 21.4417 44.7823 21.4397 45.0041 21.5919C45.2328 21.7468 45.4169 21.959 45.538 22.2074C45.7636 22.6285 45.9257 23.0807 46.0192 23.5493C46.2321 24.54 46.2976 25.5569 46.2132 26.5668C46.1715 27.1831 46.0645 27.7934 45.8941 28.3872C46.0026 28.4072 46.1111 28.4264 46.2194 28.4453L46.7056 28.5292C47.0829 28.5947 47.4576 28.6629 47.8276 28.7508C48.4605 28.898 49.0845 29.0812 49.6965 29.2997C50.3135 29.5262 50.917 29.7877 51.5041 30.0832C51.8425 30.2519 52.1714 30.4398 52.5017 30.6323L52.7854 30.7981C52.9276 30.8812 53.0707 30.9645 53.2154 31.0467L53.2276 31.0221L53.2547 30.9681C53.2638 30.9492 53.2726 30.9296 53.28 30.9094C53.883 29.2412 54.9216 27.765 56.2881 26.6339C56.6071 26.3601 56.9733 26.1468 57.3689 26.0046C57.4779 25.9666 57.5907 25.9407 57.7053 25.9273C58.278 25.8617 58.5184 26.2222 58.5607 26.6525C58.5924 26.9698 58.5685 27.2902 58.49 27.5993C58.2883 28.3691 57.9734 29.1044 57.5558 29.7815L57.509 29.8564C56.9036 30.8345 56.1879 31.718 55.2845 32.4374L55.2147 32.4924C55.2085 32.4972 55.2026 32.5022 55.1964 32.5075L55.1673 32.5345L55.1308 32.5692C55.1261 32.5736 55.1211 32.5782 55.1159 32.583C56.032 33.4278 56.8478 34.3752 57.5473 35.4065C57.4966 35.4196 57.445 35.4287 57.3929 35.4338C56.4242 35.4351 55.4554 35.4321 54.4867 35.438C54.371 35.4352 54.2635 35.3779 54.1966 35.2834C52.083 32.9742 49.2336 31.47 46.1345 31.0275C45.2563 30.8997 44.3674 30.8615 43.4816 30.9133L43.3661 30.9206C40.6394 31.0871 38.0295 32.0839 35.8866 33.7759L35.8198 33.829C35.2632 34.268 34.744 34.7525 34.2676 35.2774C34.1819 35.3838 34.0509 35.4434 33.9144 35.4382C33.3592 35.4343 32.804 35.4339 32.2488 35.4342L30.9416 35.435C30.9459 35.418 30.9533 35.3978 30.9635 35.3745L30.9771 35.3452C30.982 35.3349 30.9875 35.3242 30.9934 35.313L31.0121 35.2782L31.0335 35.2408L31.0572 35.201L31.0832 35.1589L31.1115 35.1145L31.158 35.044L31.2093 34.9691L31.2459 34.917L31.3042 34.8357C31.3109 34.8265 31.3178 34.8172 31.3246 34.8078L31.3882 34.7221L31.4327 34.6633L31.4787 34.6035L31.5503 34.5117L31.625 34.418L31.6764 34.3546L31.7289 34.2906L31.7824 34.2261L31.837 34.1613L31.8926 34.0962L31.9774 33.9984L32.0349 33.9331L32.093 33.868L32.1517 33.8031L32.2109 33.7387C32.499 33.4271 32.7975 33.1251 33.1017 32.8198L33.4077 32.5129C33.5102 32.4099 33.6133 32.3061 33.7166 32.201ZM57.3055 52.9352C56.6619 53.836 55.9275 54.6682 55.1136 55.4187L55.2839 55.5605C56.6964 56.716 57.7622 58.2394 58.3635 59.9624C58.5235 60.3827 58.5922 60.8321 58.5648 61.2809C58.5575 61.3815 58.539 61.4809 58.5097 61.5773L58.4965 61.6185C58.4003 61.9385 58.0797 62.1359 57.7506 62.0777C57.536 62.0499 57.3273 61.988 57.1323 61.8943C56.8344 61.7473 56.553 61.5691 56.2928 61.3626C54.9435 60.254 53.914 58.8064 53.3095 57.1691L53.2697 57.0606L53.2154 56.9206C52.4857 57.4031 51.7213 57.8312 50.9286 58.2013C50.1397 58.5609 49.3239 58.8582 48.4886 59.0904C47.6399 59.3207 46.7747 59.4854 45.9007 59.583L45.9126 59.6454L45.9232 59.702C45.9267 59.7201 45.9303 59.7377 45.9343 59.7549L45.9407 59.7805C46.2179 60.8679 46.3098 61.9944 46.2124 63.1124C46.1758 63.8132 46.0397 64.5052 45.8079 65.1675C45.6976 65.4416 45.5705 65.7087 45.4272 65.9671C45.3691 66.0673 45.2971 66.1587 45.2133 66.2387C44.8495 66.6144 44.415 66.6175 44.0603 66.232C43.9201 66.0764 43.8001 65.9038 43.7031 65.7183C43.4217 65.1902 43.277 64.616 43.1736 64.0305C43.0406 63.2313 42.9989 62.4195 43.0493 61.6108C43.0752 61.0535 43.155 60.5 43.2876 59.9582L43.3131 59.8567C43.3259 59.808 43.3376 59.7589 43.347 59.7095C43.3481 59.7039 43.3471 59.6979 43.3447 59.6894L43.3346 59.6545C43.3336 59.6506 43.3325 59.6465 43.3314 59.642C40.7146 59.4941 38.1734 58.7097 35.9285 57.3568L35.8434 57.5451C35.8382 57.5569 35.8329 57.5687 35.8278 57.5804C35.2097 59.0226 34.2642 60.3006 33.0669 61.3134L33.0025 61.3675C32.6774 61.6453 32.3041 61.8609 31.901 62.0037C31.7122 62.0795 31.506 62.1017 31.3053 62.0678C31.088 62.0288 30.9058 61.8825 30.8204 61.6801L30.8113 61.6573C30.6922 61.3693 30.7021 61.0707 30.7387 60.7733L30.7487 60.6958C30.8209 60.2457 30.9533 59.8075 31.1426 59.3929C31.7033 58.0868 32.5287 56.9112 33.5665 55.9402L33.651 55.8614C33.6651 55.8481 33.679 55.8348 33.6927 55.8214C33.7059 55.8026 33.717 55.7825 33.7262 55.7614C32.7483 54.9134 31.8745 53.9522 31.1233 52.8982L31.1522 52.8957L31.2508 52.8862C31.2802 52.8835 31.307 52.8817 31.3337 52.8816C32.1028 52.8809 32.8719 52.883 33.6409 52.8805L34.2177 52.8777C34.3472 52.8737 34.4716 52.9283 34.5563 53.0264C35.5776 54.0771 36.7638 54.9535 38.0677 55.621L38.1589 55.6673C39.5763 56.3967 41.1176 56.8548 42.7033 57.0181C47.0115 57.4368 50.7174 56.1308 53.8211 53.0999C53.9617 52.948 54.1624 52.8662 54.369 52.8765C54.8171 52.882 55.2653 52.8831 55.7134 52.8829L56.6097 52.8815C56.7591 52.8812 56.9084 52.881 57.0578 52.881H57.2894L57.3055 52.9352Z" fill="#0F1689" stroke="white"/>
<path d="M53.3017 39.207C53.3583 39.207 53.4145 39.2079 53.4702 39.2089L53.6364 39.2123C53.7464 39.2141 53.8551 39.2145 53.9629 39.2083L54.0436 39.2024C54.3175 39.1776 54.5135 39.2756 54.7132 39.4596C55.6742 40.3451 56.6436 41.2216 57.612 42.099L58.2149 42.6454L58.2832 42.7061L58.3858 42.7966L58.5072 42.6933C58.5333 42.671 58.5587 42.6488 58.5838 42.626C59.7808 41.5363 60.977 40.4456 62.1722 39.3541C62.2666 39.2567 62.3963 39.2024 62.5312 39.2028L62.5566 39.2035C62.7405 39.211 62.9248 39.2105 63.1128 39.2091L63.3406 39.2073C63.379 39.2071 63.4175 39.207 63.4564 39.207V48.8408C63.4525 48.8419 63.4476 48.843 63.4416 48.8441L63.4203 48.8472L63.3929 48.8502L63.3596 48.8531L63.3208 48.8558L63.2528 48.8597L63.1164 48.8654L62.9554 48.8702L62.7747 48.874L62.4986 48.8778L62.2495 48.8794L61.9982 48.8796L61.8337 48.8788L61.6361 48.8769L61.4874 48.8746L61.3832 48.8724L61.2863 48.8697L61.1705 48.8655L61.0951 48.8618L61.0307 48.8577L60.9944 48.8547L60.9638 48.8516C60.9592 48.851 60.9549 48.8505 60.9508 48.8499L60.9293 48.8464V43.9675L60.8803 43.9443L58.3899 46.2155L55.8794 43.9539L55.8315 43.9714L55.8303 44.3786L55.8305 45.1931L55.8303 45.8002L55.8305 48.8641H53.3227C53.3204 48.856 53.3181 48.826 53.3159 48.7761L53.3132 48.7068L53.3107 48.6194L53.3069 48.4559L53.3034 48.2561L53.2989 47.9379L53.2939 47.4665L53.2868 46.5723L53.2818 45.6844L53.2778 44.5969L53.2752 43.3435L53.2749 42.526L53.2763 41.5027L53.2782 40.9231L53.2817 40.31L53.2856 39.883L53.2894 39.6055L53.2927 39.4391L53.2951 39.3496L53.2976 39.2783L53.3003 39.2258C53.3008 39.2187 53.3012 39.2125 53.3017 39.207ZM30.1607 39.218H32.6534C32.6554 39.2244 32.6573 39.2454 32.6592 39.2797L32.6619 39.3412L32.6646 39.4218L32.6672 39.5208L32.6709 39.7018L32.6765 40.0829L32.6805 40.4513L32.6849 40.9802L32.6904 41.9517L32.693 42.6161L32.6957 43.8729L32.6962 44.7215L32.6953 45.6861L32.6937 46.3389L32.6907 47.0607L32.6873 47.5951L32.6821 48.1355L32.6791 48.3575L32.6768 48.4858L32.6745 48.5971L32.6719 48.6907L32.6693 48.7658L32.6665 48.8213C32.6651 48.844 32.6635 48.8591 32.662 48.8661H30.1671C30.1593 48.5159 30.159 48.1664 30.1598 47.8172L30.1612 47.2936C30.1613 47.2064 30.1613 47.1191 30.161 47.0319L30.1605 46.7724L30.1602 46.2522L30.1607 45.1997H27.0715V48.8332C27.0668 48.8346 27.0609 48.836 27.0538 48.8373L27.0292 48.8413L26.998 48.845L26.9398 48.8502L26.8938 48.8535L26.7864 48.8594L26.6937 48.8634L26.5563 48.868L26.4444 48.8709L26.2857 48.8741L26.0334 48.8774L25.7727 48.8789L25.5558 48.8788L25.3455 48.8775L25.1097 48.8742L24.967 48.871L24.8394 48.867L24.7552 48.8634L24.7053 48.8607L24.6608 48.8579L24.6049 48.8532C24.5994 48.8527 24.5942 48.8521 24.5893 48.8516L24.5631 48.8481C24.5554 48.8469 24.549 48.8457 24.5437 48.8444V39.2191H27.0615V42.6193C27.0653 42.6204 27.0702 42.6214 27.0761 42.6225L27.097 42.6256L27.1239 42.6286L27.1749 42.6329L27.238 42.6369L27.3392 42.6419L27.4268 42.6453L27.5233 42.6484L27.7396 42.6537L28.0228 42.6586L28.1954 42.6607L28.4631 42.6628L28.735 42.6637L29.0912 42.663L29.3032 42.6615L29.502 42.659L29.6834 42.6556L29.843 42.6513L29.9766 42.646L30.0426 42.6424L30.0968 42.6385L30.1259 42.6356C30.1303 42.6351 30.1344 42.6347 30.1383 42.6342L30.1584 42.6311L30.1602 42.0103C30.1604 41.9407 30.1605 41.871 30.1606 41.8013L30.1609 41.3677L30.1607 39.218ZM35.6411 48.8626V39.2466C35.6455 39.2451 35.6548 39.2437 35.6685 39.2423L35.702 39.2395C35.7085 39.2391 35.7155 39.2386 35.7231 39.2382L35.8029 39.2343L35.9066 39.2305L36.0322 39.2269L36.2311 39.2224L36.462 39.2183L36.7211 39.2146L37.386 39.2076L37.7086 39.2051L38.4689 39.2012L39.0696 39.1997L39.7361 39.1999L40.2776 39.2017L40.6936 39.2046L40.9961 39.208L41.25 39.2123L41.3361 39.2142L41.4474 39.2175L41.5355 39.2211L41.5805 39.2237L41.614 39.2265C41.6186 39.2269 41.6227 39.2274 41.6263 39.2279V41.2772C41.5459 41.2829 41.463 41.294 41.3801 41.2941L39.9164 41.2952L38.1814 41.2949V42.8888H41.2303V45.0092H38.2087C38.2044 45.0246 38.2004 45.0478 38.1966 45.0775L38.1922 45.1162L38.1882 45.1608L38.1825 45.2376L38.1791 45.2947L38.1745 45.3881L38.1706 45.4894L38.1664 45.6339L38.164 45.7474L38.1624 45.8636L38.1613 46.0198L38.1617 46.212L38.163 46.3228L38.1643 46.3939L38.1659 46.4622L38.1691 46.5584L38.1729 46.6456L38.176 46.698L38.1794 46.7452L38.1832 46.7869C38.1839 46.7933 38.1846 46.7995 38.1853 46.8054C38.2625 46.8107 38.3452 46.821 38.428 46.8211L39.8917 46.8221L41.6269 46.8218V48.8626H35.6411ZM44.483 48.8663C44.4812 48.8559 44.4794 48.8313 44.4778 48.7934L44.4754 48.727L44.4731 48.6416L44.4709 48.5381L44.4679 48.3511L44.4652 48.1283L44.4606 47.5871L44.4576 47.0527L44.4547 46.2043L44.453 44.9961L44.454 43.447L44.4573 42.2141L44.462 41.2129L44.4666 40.5552L44.471 40.087L44.475 39.7745L44.4772 39.6413L44.4805 39.4726L44.4829 39.3823L44.4854 39.3106L44.4879 39.2585C44.4892 39.2375 44.4906 39.2241 44.4919 39.2188H46.9754V46.3288L47.0518 46.3333L47.1216 46.3378L47.1872 46.3412C47.2086 46.342 47.2296 46.3425 47.2507 46.3426L48.7252 46.3434L50.4656 46.3431V48.8663H44.483Z" fill="#0F1689" stroke="white"/>
</g>
<defs>
<filter id="filter0_dd_122_111" x="0" y="0" width="88" height="88" filterUnits="userSpaceOnUse" color-interpolation-filters="sRGB">
<feFlood flood-opacity="0" result="BackgroundImageFix"/>
<feColorMatrix in="SourceAlpha" type="matrix" values="0 0 0 0 0 0 0 0 0 0 0 0 0 0 0 0 0 0 127 0" result="hardAlpha"/>
<feOffset dx="4" dy="-4"/>
<feGaussianBlur stdDeviation="5"/>
<feComposite in2="hardAlpha" operator="out"/>
<feColorMatrix type="matrix" values="0 0 0 0 0.909804 0 0 0 0 0.843137 0 0 0 0 0.984314 0 0 0 0.8 0"/>
<feBlend mode="normal" in2="BackgroundImageFix" result="effect1_dropShadow_122_111"/>
<feColorMatrix in="SourceAlpha" type="matrix" values="0 0 0 0 0 0 0 0 0 0 0 0 0 0 0 0 0 0 127 0" result="hardAlpha"/>
<feOffset dx="-4" dy="4"/>
<feGaussianBlur stdDeviation="5"/>
<feComposite in2="hardAlpha" operator="out"/>
<feColorMatrix type="matrix" values="0 0 0 0 0.909804 0 0 0 0 0.843137 0 0 0 0 0.984314 0 0 0 0.8 0"/>
<feBlend mode="normal" in2="effect1_dropShadow_122_111" result="effect2_dropShadow_122_111"/>
<feBlend mode="normal" in="SourceGraphic" in2="effect2_dropShadow_122_111" result="shape"/>
</filter>
<linearGradient id="paint0_linear_122_111" x1="44" y1="14" x2="44" y2="74" gradientUnits="userSpaceOnUse">
<stop stop-color="#E8D7FB"/>
<stop offset="1" stop-color="#BB88F4"/>
</linearGradient>
</defs>
</svg>
