<svg width="88" height="88" viewBox="0 0 88 88" fill="none" xmlns="http://www.w3.org/2000/svg">
<g filter="url(#filter0_dd_122_1833)">
<rect x="14" y="14" width="60" height="60" rx="16" fill="url(#paint0_linear_122_1833)"/>
<rect x="14.5" y="14.5" width="59" height="59" rx="15.5" stroke="#E8D7FB"/>
<path d="M57.2633 39.7469C57.2633 47.2556 51.3099 53.3483 43.9622 53.3483C36.6143 53.3483 30.661 47.2556 30.661 39.7469C30.661 32.2381 36.6143 26.1454 43.9622 26.1454C51.3099 26.1454 57.2633 32.2381 57.2633 39.7469Z" fill="#D33833"/>
<path d="M31.2083 43.115C31.2083 43.115 30.2429 28.9343 43.3187 28.5267L42.407 27.0035L35.3166 29.3849L33.2892 31.7126L31.5193 35.1022L30.511 39.0496L30.8114 41.6884" fill="#EF3D3A"/>
<mask id="path-5-inside-1_122_1833" fill="white">
<path d="M34.8554 30.4684C32.5277 32.8604 31.0796 36.1535 31.0796 39.8006C31.0796 43.4477 32.5277 46.7408 34.8554 49.1328C37.1939 51.5249 40.4012 52.9945 43.9624 52.9945C47.5237 52.9945 50.731 51.5249 53.0694 49.1328C55.3971 46.7408 56.8452 43.4477 56.8452 39.8006C56.8452 36.1535 55.3971 32.8604 53.0694 30.4684C50.731 28.087 47.5237 26.6067 43.9624 26.6067C40.4119 26.6067 37.1939 28.0763 34.8554 30.4684ZM34.2654 49.7013C31.7876 47.1699 30.2537 43.6622 30.2537 39.8006C30.2537 35.939 31.7876 32.4313 34.2654 29.8891C36.7434 27.3576 40.1759 25.7808 43.9624 25.7808C47.7489 25.7808 51.1815 27.3576 53.6594 29.8891C56.1372 32.4206 57.6711 35.9282 57.6711 39.8006C57.6711 43.6622 56.1372 47.1699 53.6594 49.7013C51.1815 52.2436 47.7489 53.8097 43.9624 53.8097C40.1759 53.8097 36.7434 52.2436 34.2654 49.7013Z"/>
</mask>
<path d="M34.8554 30.4684C32.5277 32.8604 31.0796 36.1535 31.0796 39.8006C31.0796 43.4477 32.5277 46.7408 34.8554 49.1328C37.1939 51.5249 40.4012 52.9945 43.9624 52.9945C47.5237 52.9945 50.731 51.5249 53.0694 49.1328C55.3971 46.7408 56.8452 43.4477 56.8452 39.8006C56.8452 36.1535 55.3971 32.8604 53.0694 30.4684C50.731 28.087 47.5237 26.6067 43.9624 26.6067C40.4119 26.6067 37.1939 28.0763 34.8554 30.4684ZM34.2654 49.7013C31.7876 47.1699 30.2537 43.6622 30.2537 39.8006C30.2537 35.939 31.7876 32.4313 34.2654 29.8891C36.7434 27.3576 40.1759 25.7808 43.9624 25.7808C47.7489 25.7808 51.1815 27.3576 53.6594 29.8891C56.1372 32.4206 57.6711 35.9282 57.6711 39.8006C57.6711 43.6622 56.1372 47.1699 53.6594 49.7013C51.1815 52.2436 47.7489 53.8097 43.9624 53.8097C40.1759 53.8097 36.7434 52.2436 34.2654 49.7013Z" fill="#231F20"/>
<path d="M34.8554 30.4684L34.1404 29.7693L34.1388 29.771L34.8554 30.4684ZM34.8554 49.1328L34.1388 49.8302L34.1404 49.8319L34.8554 49.1328ZM53.0694 49.1328L53.7845 49.8318L53.786 49.8302L53.0694 49.1328ZM53.0694 30.4684L53.7861 29.7709L53.7829 29.7677L53.0694 30.4684ZM34.2654 49.7013L34.9815 49.0033L34.9801 49.0018L34.2654 49.7013ZM34.2654 29.8891L33.5508 29.1896L33.5493 29.1911L34.2654 29.8891ZM53.6594 49.7013L52.9447 49.0018L52.9433 49.0034L53.6594 49.7013ZM34.1388 29.771C31.6359 32.343 30.0796 35.8838 30.0796 39.8006H32.0796C32.0796 36.4232 33.4196 33.3778 35.5721 31.1658L34.1388 29.771ZM30.0796 39.8006C30.0796 43.7174 31.6359 47.2582 34.1388 49.8302L35.5721 48.4354C33.4196 46.2234 32.0796 43.178 32.0796 39.8006H30.0796ZM34.1404 49.8319C36.6565 52.4057 40.1174 53.9945 43.9624 53.9945V51.9945C40.6849 51.9945 37.7312 50.6441 35.5705 48.4338L34.1404 49.8319ZM43.9624 53.9945C47.8074 53.9945 51.2684 52.4057 53.7845 49.8318L52.3543 48.4338C50.1936 50.6441 47.24 51.9945 43.9624 51.9945V53.9945ZM53.786 49.8302C56.289 47.2582 57.8452 43.7174 57.8452 39.8006H55.8452C55.8452 43.178 54.5053 46.2234 52.3527 48.4354L53.786 49.8302ZM57.8452 39.8006C57.8452 35.8838 56.289 32.343 53.786 29.7709L52.3527 31.1658C54.5053 33.3778 55.8452 36.4232 55.8452 39.8006H57.8452ZM53.7829 29.7677C51.2689 27.2075 47.8092 25.6067 43.9624 25.6067V27.6067C47.2381 27.6067 50.1931 28.9665 52.3559 31.169L53.7829 29.7677ZM43.9624 25.6067C40.1286 25.6067 36.6568 27.1951 34.1404 29.7693L35.5705 31.1674C37.7309 28.9574 40.6951 27.6067 43.9624 27.6067V25.6067ZM34.9801 49.0018C32.6802 46.6522 31.2537 43.3938 31.2537 39.8006H29.2537C29.2537 43.9306 30.8949 47.6875 33.5508 50.4008L34.9801 49.0018ZM31.2537 39.8006C31.2537 36.2077 32.68 32.9484 34.9815 30.5871L33.5493 29.1911C30.8951 31.9143 29.2537 35.6702 29.2537 39.8006H31.2537ZM34.9801 30.5886C37.2807 28.2382 40.4599 26.7808 43.9624 26.7808V24.7808C39.8918 24.7808 36.206 26.477 33.5508 29.1896L34.9801 30.5886ZM43.9624 26.7808C47.4649 26.7808 50.6441 28.2382 52.9447 30.5886L54.374 29.1896C51.7189 26.477 48.033 24.7808 43.9624 24.7808V26.7808ZM52.9447 30.5886C55.2443 32.9379 56.6711 36.1962 56.6711 39.8006H58.6711C58.6711 35.6602 57.0302 31.9033 54.374 29.1896L52.9447 30.5886ZM56.6711 39.8006C56.6711 43.3938 55.2446 46.6522 52.9447 49.0018L54.374 50.4008C57.0299 47.6875 58.6711 43.9306 58.6711 39.8006H56.6711ZM52.9433 49.0034C50.6446 51.3617 47.4666 52.8097 43.9624 52.8097V54.8097C48.0313 54.8097 51.7184 53.1254 54.3755 50.3993L52.9433 49.0034ZM43.9624 52.8097C40.4582 52.8097 37.2803 51.3617 34.9815 49.0033L33.5493 50.3993C36.2064 53.1254 39.8935 54.8097 43.9624 54.8097V52.8097Z" fill="white" mask="url(#path-5-inside-1_122_1833)"/>
<path d="M49.5619 39.8219L47.5346 40.1223L44.7993 40.4334L43.0294 40.4763L41.3024 40.4227L39.983 40.015L38.8138 38.7493L37.902 36.1641L37.6982 35.6064L36.4861 35.1988L35.7781 34.0295L35.274 32.3561L35.8317 30.8866L37.1511 30.4253L38.2131 30.9295L38.7172 32.0451L39.3286 31.9486L39.5325 31.6911L39.3286 30.5219L39.275 29.0523L39.5753 27.025L39.5646 25.8665L40.4871 24.3862L42.1069 23.217L44.9387 22.0049L48.0816 22.4661L50.817 24.4398L52.0827 26.4672L52.8979 27.9367L53.1017 31.5838L52.4903 34.7268L51.3747 37.5157L50.3235 39.0067" fill="#F0D6B7"/>
<path d="M47.8453 48.5858L40.6047 48.8862V50.0983L41.2161 54.3568L40.9158 54.7108L35.8528 52.9838L35.4988 52.3723L34.9946 46.6443L33.804 43.2117L33.5465 42.3965L37.6012 39.6076L38.867 39.1034L39.9826 40.4764L40.948 41.3345L42.0635 41.6885L42.5677 41.8387L43.1791 44.4775L43.6404 45.0353L44.8096 44.6277L43.9943 46.2045L48.3923 48.2855L47.8453 48.5858Z" fill="#335061"/>
<path d="M35.8317 30.9081L37.1511 30.4469L38.2131 30.951L38.7172 32.0666L39.3286 31.9701L39.4788 31.3587L39.1785 30.1894L39.4788 27.4005L39.2214 25.8773L40.1331 24.8154L42.1069 23.2493L41.5491 22.4877L38.7601 23.8607L37.5909 24.7725L36.9366 26.1884L35.9282 27.5614L35.6279 29.1811L35.8317 30.9081Z" fill="#6D6B6D"/>
<path d="M37.9125 26.1455C37.9125 26.1455 38.6741 24.2683 41.7097 23.3566C44.7454 22.4448 41.8599 22.7022 41.8599 22.7022L38.5668 23.968L37.3011 25.2337L36.7433 26.2421L37.9125 26.1455Z" fill="#DCD9D8"/>
<path d="M36.3895 30.5541C36.3895 30.5541 35.3276 27.0035 39.3823 26.4994L39.2321 25.8879L36.4432 26.5423L35.6279 29.1811L35.8317 30.9081L36.3895 30.5541Z" fill="#DCD9D8"/>
<path d="M38.009 35.2632L38.6741 34.6196C38.6741 34.6196 38.9744 34.6518 39.0281 35.0058C39.0817 35.3598 39.2319 38.5563 41.4094 40.2726C41.6132 40.4335 39.7897 40.0151 39.7897 40.0151L38.1699 37.4837" fill="#F7E4CD"/>
<path d="M47.3307 34.2978C47.3307 34.2978 47.4487 32.7639 47.8671 32.8818C48.2854 32.9999 48.2854 33.4182 48.2854 33.4182C48.2854 33.4182 47.2771 34.0618 47.3307 34.2978Z" fill="#F7E4CD"/>
<path d="M51.5355 28.677C51.5355 28.677 50.6988 28.8486 50.6237 29.5888C50.5486 30.3289 51.5355 29.7389 51.6857 29.6853" fill="#F7E4CD"/>
<path d="M45.4109 28.7306C45.4109 28.7306 44.2953 28.8808 44.2953 29.5887C44.2953 30.2967 45.561 30.2431 45.915 29.9427" fill="#F7E4CD"/>
<path d="M38.5242 32.0236C38.5242 32.0236 36.6041 30.8544 36.4003 31.97C36.1965 33.0856 35.746 33.8901 36.7007 35.0593L36.0464 34.8555L35.4349 33.2894L35.2311 31.7662L36.4003 30.5541L37.7197 30.6506L38.4813 31.262L38.5242 32.0236Z" fill="#F7E4CD"/>
<path d="M39.4358 28.8272C39.4358 28.8272 40.2939 24.3649 44.649 23.5067C48.2317 22.7988 50.1196 23.6569 50.8276 24.4721C50.8276 24.4721 47.631 20.6749 44.5954 21.8334C41.5597 23.0026 39.3286 25.1265 39.3822 26.4888C39.468 28.8272 39.4358 28.8272 39.4358 28.8272Z" fill="#F7E4CD"/>
<path d="M51.1817 24.9763C51.1817 24.9763 49.7122 24.9226 49.6585 26.242C49.6585 26.242 49.6585 26.4458 49.7551 26.6496C49.7551 26.6496 50.9243 25.3302 51.6322 26.0382" fill="#F7E4CD"/>
<path d="M44.7561 26.7891C44.7561 26.7891 44.4987 24.7724 42.7824 25.9417C41.6669 26.7032 41.7741 27.7652 41.9672 27.969C42.171 28.1728 42.1174 28.5804 42.2675 28.3016C42.4177 28.0226 42.3748 27.1109 42.9326 26.8534C43.4797 26.596 44.4022 26.3171 44.7561 26.7891Z" fill="#F7E4CD"/>
<path d="M39.9935 40.4764L35.2309 42.6002C35.2309 42.6002 37.2046 50.4522 36.1963 52.8872L35.4883 52.6297L35.4347 49.637L34.1153 43.9733L33.5575 42.4072L38.524 39.0604L39.9935 40.4764Z" fill="#49728B"/>
<path d="M40.4759 44.8207L41.1517 45.6466V48.6823H40.3472C40.3472 48.6823 40.2507 46.5584 40.2507 46.301C40.2507 46.0435 40.3472 45.1318 40.3472 45.1318" fill="#49728B"/>
<path d="M40.4976 49.1436L38.2128 49.2401L38.8671 49.7014L40.4869 49.9588" fill="#49728B"/>
<path d="M48.2961 48.6394L50.1733 48.5858L50.6345 53.2412L48.7145 53.4987L48.2961 48.6394Z" fill="#335061"/>
<path d="M48.8004 48.6394L51.6322 48.4893C51.6322 48.4893 52.8014 45.5501 52.8014 45.4C52.8014 45.2498 53.8097 41.1415 53.8097 41.1415L51.5249 38.7601L51.0637 38.3525L49.8515 39.5646V44.2736L48.8004 48.6394Z" fill="#335061"/>
<path d="M50.066 48.2855L48.2961 48.6395L48.5536 50.0554C49.2079 50.3558 50.3235 49.5513 50.3235 49.5513" fill="#49728B"/>
<path d="M50.1197 39.4144L53.6702 42.0532L53.7668 40.841L51.0851 38.3632L50.1197 39.4144Z" fill="#49728B"/>
<path d="M42.257 58.6152L41.2058 54.3567L40.6802 51.2138L40.5944 48.8861L45.3463 48.6287H48.2961L48.028 53.9491L48.4892 58.0575L48.4356 58.819L44.5847 59.1194L42.257 58.6152Z" fill="white"/>
<path d="M47.6419 48.5859C47.6419 48.5859 47.3844 53.8527 48.146 57.607C48.146 57.607 46.6229 58.5725 44.4024 58.8191L48.6609 58.669L49.1651 58.3686L48.5537 50.0662L48.3928 48.2855" fill="#DCD9D8"/>
<path d="M50.7093 52.8443L52.6831 52.2865L56.4267 52.0827L56.9845 50.3557L55.9761 47.3629L54.8069 47.2128L53.1872 47.7169L51.6426 48.4785L50.8166 48.3283L50.173 48.5858" fill="white"/>
<path d="M50.6772 51.8252C50.6772 51.8252 51.9966 51.2138 52.2004 51.2675L51.6426 48.4785L52.297 48.2211C52.297 48.2211 52.7582 50.8598 52.7582 51.1602C52.7582 51.1602 55.59 51.3104 55.8475 51.3104C55.8475 51.3104 56.4589 50.1411 56.3087 48.929L56.8665 50.5488L56.9202 51.4605L56.105 52.6727L55.1932 52.8765L53.67 52.8228L53.1658 52.1685L51.3959 52.4259L50.8382 52.6297" fill="#DCD9D8"/>
<path d="M48.6823 48.2319L47.5667 45.4L46.3975 43.7266C46.3975 43.7266 46.6549 43.0187 47.0089 43.0187H48.1781L49.2937 43.4263L49.1971 45.3035L48.6823 48.2319Z" fill="white"/>
<path d="M48.9073 47.2664C48.9073 47.2664 47.4914 44.5311 47.4914 44.1235C47.4914 44.1235 47.7488 43.5121 48.1028 43.6622C48.4567 43.8124 49.2184 44.22 49.2184 44.22V43.2546L47.4914 42.9006L46.3221 43.0508L48.2959 47.7277L48.7035 47.7813" fill="#DCD9D8"/>
<path d="M42.7076 40.5837L41.3024 40.4335L39.983 40.0259V40.4871L40.6266 41.1951L42.654 42.1069" fill="white"/>
<path d="M40.4442 40.7338C40.4442 40.7338 42.0103 41.3881 42.5251 41.2379L42.5788 41.8494L41.1629 41.549L40.3047 40.9376L40.4442 40.7338Z" fill="#DCD9D8"/>
<path d="M50.7097 43.1902C49.8516 43.1688 49.0686 43.0615 48.3928 42.8684C48.4357 42.5895 48.3499 42.3214 48.425 42.1175C48.618 41.9781 48.9291 41.9781 49.2187 41.9459C48.972 41.8279 48.618 41.7743 48.3391 41.8494C48.3284 41.6563 48.2426 41.5383 48.189 41.3881C48.6717 41.2165 49.8087 40.0902 50.4523 40.4549C50.7634 40.6373 50.8921 41.6456 50.9136 42.1497C50.935 42.5573 50.8706 42.965 50.7097 43.1902Z" fill="#D33833"/>
<path d="M50.7097 43.1902C49.8516 43.1688 49.0686 43.0615 48.3928 42.8684C48.4357 42.5895 48.3499 42.3214 48.425 42.1175C48.618 41.9781 48.9291 41.9781 49.2187 41.9459C48.972 41.8279 48.618 41.7743 48.3391 41.8494C48.3284 41.6563 48.2426 41.5383 48.189 41.3881C48.6717 41.2165 49.8087 40.0902 50.4523 40.4549C50.7634 40.6373 50.8921 41.6456 50.9136 42.1497C50.935 42.5573 50.8706 42.965 50.7097 43.1902Z" fill="black" stroke="#D33833"/>
<path d="M46.6013 41.785C46.6013 41.8493 46.6013 41.9137 46.5905 41.9781C46.3223 42.1497 45.8933 42.1497 45.5929 42.2999C46.022 42.3213 46.3653 42.4286 46.6656 42.568C46.6549 42.7289 46.6549 42.9006 46.6441 43.0615C46.1507 43.394 45.7002 43.8981 45.121 44.2199C44.842 44.3701 43.8874 44.7563 43.5977 44.6812C43.4368 44.6383 43.4154 44.4345 43.3511 44.2414C43.2116 43.8338 42.8898 43.1687 42.8576 42.5465C42.8254 41.7635 42.7396 40.4441 43.5871 40.605C44.2736 40.7338 45.0673 41.0448 45.5929 41.3344C45.9254 41.5275 46.1078 41.7421 46.6013 41.785Z" fill="#D33833"/>
<path d="M46.6013 41.785C46.6013 41.8493 46.6013 41.9137 46.5905 41.9781C46.3223 42.1497 45.8933 42.1497 45.5929 42.2999C46.022 42.3213 46.3653 42.4286 46.6656 42.568C46.6549 42.7289 46.6549 42.9006 46.6441 43.0615C46.1507 43.394 45.7002 43.8981 45.121 44.2199C44.842 44.3701 43.8874 44.7563 43.5977 44.6812C43.4368 44.6383 43.4154 44.4345 43.3511 44.2414C43.2116 43.8338 42.8898 43.1687 42.8576 42.5465C42.8254 41.7635 42.7396 40.4441 43.5871 40.605C44.2736 40.7338 45.0673 41.0448 45.5929 41.3344C45.9254 41.5275 46.1078 41.7421 46.6013 41.785Z" fill="black" stroke="#D33833"/>
<path d="M47.0839 42.7183C47.0088 42.2892 46.923 42.1712 46.9552 41.7957C48.1029 41.0342 48.3067 43.1044 47.0839 42.7183Z" fill="#D33833"/>
<path d="M47.0839 42.7183C47.0088 42.2892 46.923 42.1712 46.9552 41.7957C48.1029 41.0342 48.3067 43.1044 47.0839 42.7183Z" fill="black" stroke="#D33833"/>
<path d="M48.7355 43.0615C48.7355 43.0615 48.3815 42.5574 48.639 42.4072C48.8964 42.2571 49.1431 42.4072 49.2933 42.1498C49.4435 41.8923 49.2933 41.7422 49.347 41.4418C49.4006 41.1415 49.6473 41.0878 49.9047 41.0342C50.1622 40.9806 50.8701 40.884 50.9667 41.1307L50.6664 40.219L50.0549 40.0151L48.1348 41.1307L48.0383 41.6885V42.8041" fill="#EF3D3A"/>
<path d="M43.4155 44.7349C43.3512 43.9411 43.2868 43.158 43.2225 42.3643C43.1152 41.1843 43.5013 41.3881 44.5311 41.3881C44.692 41.3881 45.4965 41.5705 45.5502 41.6885C45.829 42.257 45.0889 42.1283 45.872 42.5574C46.5263 42.9113 47.6955 42.3428 47.4273 41.5383C47.2772 41.3559 46.655 41.4846 46.4298 41.3667C46.0329 41.1629 45.636 40.959 45.2391 40.7553C44.7349 40.4978 43.5764 40.1116 43.0401 40.4763C41.6778 41.3989 43.1259 43.7158 43.6086 44.6812" fill="#EF3D3A"/>
<path d="M44.7563 26.7892C43.3725 26.4673 42.686 27.3684 42.2677 28.3016C41.8923 28.2158 42.0424 27.701 42.139 27.4435C42.3857 26.7677 43.3833 25.8559 44.1985 25.9847C44.5418 26.0276 45.0137 26.3494 44.7563 26.7892Z" fill="#231F20"/>
<path d="M51.4817 28.3551H51.5461C51.8571 28.9987 52.1253 29.6852 52.5222 30.2644C52.254 30.8866 50.5271 31.4229 50.5485 30.3288C50.9239 30.1679 51.5675 30.2966 51.9001 30.0821C51.707 29.5565 51.4388 29.106 51.4817 28.3551Z" fill="#231F20"/>
<path d="M45.4535 28.3767C45.7538 28.9238 45.8503 29.4923 46.2687 29.8999C46.4618 30.0823 46.8265 30.3075 46.6441 30.8224C46.6012 30.9404 46.2901 31.2085 46.1078 31.2622C45.4535 31.4553 43.9195 31.3051 44.4344 30.4791C44.9815 30.5006 45.7109 30.8331 46.1185 30.4362C45.8074 29.9428 45.2497 28.9559 45.4535 28.3767Z" fill="#231F20"/>
<path d="M51.2353 33.8903C50.2485 34.5231 49.1436 35.2204 47.5132 35.0595C47.1699 34.7591 47.0305 34.0833 47.3737 33.6435C47.5454 33.9439 47.4381 34.5017 47.9315 34.5875C48.854 34.7484 49.9267 34.019 50.5918 33.7722C50.9993 33.075 50.5596 32.8283 50.1841 32.3778C49.4225 31.466 48.4142 30.329 48.4464 28.9667C48.7575 28.7414 48.7789 29.3099 48.8218 29.4064C49.2187 30.329 50.2163 31.5196 50.935 32.3134C51.1174 32.5065 51.407 32.6996 51.4392 32.8283C51.5357 33.193 51.1924 33.6435 51.2353 33.8903Z" fill="#231F20"/>
<path d="M38.1698 33.225C37.8588 33.0427 37.7837 32.2704 37.4189 32.2489C36.8933 32.2167 36.9899 33.2572 36.9899 33.8686C36.6359 33.5468 36.5715 32.5385 36.829 32.0236C36.5286 31.8735 36.3999 32.1845 36.2283 32.2918C36.4536 30.7364 38.5131 31.5731 38.1698 33.225Z" fill="#231F20"/>
<path d="M51.8572 34.5446C51.396 35.4242 50.7416 36.3896 49.39 36.4217C49.3579 36.1429 49.3364 35.7031 49.39 35.5314C50.4306 35.4242 51.0742 34.8986 51.8572 34.5446Z" fill="#231F20"/>
<path d="M45.3781 35.1129C46.2362 35.5634 47.8237 35.6171 49.0037 35.5849C49.068 35.8424 49.068 36.1642 49.068 36.4752C47.5556 36.5396 45.775 36.1642 45.3781 35.1129Z" fill="#231F20"/>
<path d="M45.2175 35.9497C45.8181 37.4515 47.8669 37.2798 49.5939 37.2369C49.5188 37.43 49.3579 37.666 49.1434 37.7411C48.5856 37.9663 47.0624 38.138 46.2901 37.7304C45.8074 37.4729 45.4856 36.8829 45.2175 36.5397C45.0994 36.3788 44.4558 35.9604 45.2175 35.9497Z" fill="#231F20"/>
<path d="M51.1598 44.22C50.4626 45.4214 49.7868 46.655 48.9608 47.7062C49.3041 46.6871 49.4543 44.9708 49.5079 43.6622C50.2373 43.319 50.8595 43.7373 51.1598 44.22Z" fill="#81B0C4"/>
<path d="M54.9251 48.5321C54.1421 48.693 53.595 49.4546 52.8227 49.401C53.2517 48.811 53.9812 48.5535 54.9251 48.5321Z" fill="#231F20"/>
<path d="M55.2684 49.7549C54.6248 49.8193 53.8739 49.9266 53.2303 49.8729C53.5414 49.4009 54.7213 49.5725 55.2684 49.7549Z" fill="#231F20"/>
<path d="M55.4937 50.8168C54.7751 50.8276 53.8847 50.8168 53.1982 50.7632C53.6059 50.3234 55.0325 50.6023 55.4937 50.8168Z" fill="#231F20"/>
<path d="M49.8083 53.7132C49.9156 54.6142 50.2696 55.526 50.2267 56.5129C49.8298 56.6416 49.6045 56.7595 49.0682 56.7595C49.036 55.9229 48.918 54.6357 48.9502 53.8311C49.2076 53.8526 49.5938 53.6488 49.8083 53.7132Z" fill="#DCD9D8"/>
<path d="M48.6498 40.4121C48.285 40.6481 47.9847 40.9377 47.6307 41.1952C46.8584 41.238 46.4401 41.1415 45.8823 40.7017C45.893 40.6696 45.9466 40.6803 45.9466 40.6374C46.7726 41.0021 47.8238 40.4872 48.6498 40.4121Z" fill="#F0D6B7"/>
<path d="M44.3381 46.0221C44.5634 45.046 45.4537 44.5311 46.2582 43.9948C47.0841 45.046 47.5883 46.3975 48.1461 47.7062C46.8267 47.3093 45.4859 46.6765 44.3381 46.0221Z" fill="#81B0C4"/>
<mask id="path-58-inside-2_122_1833" fill="white">
<path d="M48.9503 53.8418C48.9181 54.6463 49.0254 55.9228 49.0682 56.7702C49.6046 56.7702 49.8299 56.6522 50.2267 56.5235C50.2697 55.5366 49.9156 54.6249 49.8084 53.7238C49.5939 53.6487 49.2077 53.8525 48.9503 53.8418ZM40.6692 49.2937C41.0232 52.5224 41.5274 55.2255 42.4606 58.0896C44.5309 58.7224 47.0195 58.7761 48.8537 58.2076C48.5212 56.5986 48.6607 54.6356 48.4676 52.9086C48.3174 51.6107 48.3925 50.3127 48.1887 48.9934C45.9682 48.5321 42.8361 48.8861 40.6692 49.2937ZM48.7143 49.0148C48.6928 50.3986 48.7786 51.7716 48.8859 53.1553C49.4223 53.0802 49.7762 53.0266 50.2697 52.9086C50.1088 51.5785 50.1302 50.066 49.7977 48.8861C49.4223 48.8968 49.0897 48.8861 48.7143 49.0148ZM51.4067 48.7895C51.1493 48.7359 50.8596 48.7895 50.6236 48.7895C50.7416 49.9158 51.0098 51.1601 51.1063 52.3508C51.4818 52.3615 51.6856 52.1792 51.9967 52.1255C52.0181 51.0851 51.9109 49.6477 51.4067 48.7895ZM55.4936 52.5224C56.2873 52.3294 56.7808 51.3639 56.5555 50.3664C56.4053 49.7013 56.1479 48.4356 55.8583 48.0065C55.6545 47.6954 55.086 47.2771 54.6247 47.5667C53.8845 48.0387 52.5866 48.1781 52.0503 48.7466C52.3185 49.6477 52.4042 50.8705 52.5115 52.0075C53.434 52.0612 54.5604 51.7501 55.3327 52.0826C54.7963 52.2543 54.1098 52.2543 53.6485 52.5117C54.0347 52.6941 54.9143 52.6619 55.4936 52.5224ZM48.135 47.7061C47.5773 46.3975 47.0731 45.0459 46.2471 43.9947C45.4426 44.531 44.563 45.0459 44.327 46.022C45.4855 46.6763 46.8264 47.3092 48.135 47.7061ZM49.5081 43.6621C49.4544 44.9708 49.3042 46.6871 48.961 47.7061C49.7869 46.6442 50.4627 45.4214 51.1599 44.2199C50.8596 43.7372 50.2375 43.3189 49.5081 43.6621ZM47.9527 43.1151C47.6416 43.0829 47.3734 43.4798 46.9658 43.3082C46.8693 43.4154 46.7835 43.5227 46.6869 43.63C47.588 44.7241 48.0063 46.2688 48.7035 47.5452C49.079 46.3116 49.0361 44.9708 49.1219 43.63C48.607 43.6514 48.3174 43.1473 47.9527 43.1151ZM46.9551 41.7957C46.9229 42.1711 47.0087 42.2891 47.0838 42.7182C48.3067 43.1043 48.1029 41.0341 46.9551 41.7957ZM45.5928 41.3452C45.0672 41.0556 44.2734 40.7445 43.5869 40.6157C42.7395 40.4549 42.8253 41.7743 42.8575 42.5573C42.8897 43.1794 43.2115 43.8338 43.3509 44.2521C43.4153 44.4452 43.4367 44.649 43.5976 44.6919C43.8873 44.7563 44.8527 44.3808 45.1208 44.2307C45.7001 43.9196 46.1506 43.4154 46.644 43.0722C46.6547 42.9113 46.6547 42.7397 46.6655 42.5787C46.3651 42.4286 46.0326 42.332 45.5928 42.3106C45.8824 42.1604 46.3222 42.1604 46.5904 41.9888C46.5904 41.9244 46.5904 41.86 46.6011 41.7957C46.1077 41.7421 45.9253 41.5276 45.5928 41.3452ZM40.5512 40.4334C40.1115 40.8839 41.7848 41.4846 42.3104 41.5168C42.3104 41.2379 42.4713 40.9698 42.4392 40.766C41.8063 40.6587 40.9803 40.7338 40.5512 40.4334ZM45.9575 40.6372C45.9575 40.6801 45.9039 40.6694 45.8931 40.7016C46.4617 41.1414 46.88 41.2379 47.6416 41.195C47.9848 40.9483 48.2959 40.6479 48.6607 40.412C47.8239 40.487 46.7727 41.002 45.9575 40.6372ZM50.9133 42.139C50.8918 41.6455 50.7631 40.6265 50.452 40.4442C49.8084 40.0687 48.6713 41.2057 48.1887 41.3774C48.2423 41.5276 48.3281 41.6455 48.3389 41.8386C48.6285 41.7635 48.9717 41.8172 49.2184 41.9351C48.9288 41.9673 48.6177 41.9673 48.4247 42.1068C48.3603 42.3106 48.4461 42.5787 48.3925 42.8577C49.0682 43.0507 49.8513 43.1473 50.7094 43.1794C50.8703 42.9649 50.9347 42.5573 50.9133 42.139ZM39.8111 40.8625C39.6716 40.766 38.7384 39.5538 38.6097 39.6074C36.9256 40.2725 35.3488 41.4203 33.9436 42.5144C35.2844 45.3999 35.8315 48.929 35.928 52.3294C37.462 53.048 38.8135 54.0885 40.9052 54.1958C40.6585 52.4903 40.444 50.9563 40.3045 49.3473C39.7789 49.1221 39.0281 49.358 38.5346 49.283C38.5346 48.693 39.2855 49.0255 39.3498 48.6286C39.3928 48.3283 38.9315 48.3068 39.0817 47.8349C39.4679 47.9743 39.6716 48.2854 40.0793 48.4034C40.4547 47.5881 40.0793 46.14 40.1329 45.4535C40.1436 45.3248 40.1973 44.7455 40.4869 44.8421C40.7444 44.9279 40.4762 46.3975 40.4976 47.0411C40.519 47.6418 40.4225 48.2103 40.6692 48.5857C42.6859 48.3068 44.7347 48.1352 46.9229 48.0709C46.4402 47.867 45.8717 47.674 45.2496 47.32C44.9063 47.1269 43.8444 46.73 43.7478 46.4082C43.5869 45.8933 44.1554 45.6251 44.2519 45.1854C43.2329 45.7432 43.0398 44.649 42.7931 43.8874C42.5786 43.1902 42.4499 42.6646 42.3962 42.2677C41.5059 41.8172 40.562 41.3988 39.8111 40.8625ZM50.0229 39.7469C51.4281 39.0711 51.6856 42.2891 51.1278 43.3297C51.2136 43.6407 51.5032 43.7587 51.6212 44.0376C50.8382 45.4428 49.9693 46.7515 49.1648 48.1352C49.7548 47.7598 50.6129 48.0709 51.3102 47.7919C51.5676 47.6954 51.7499 47.1054 51.943 46.6335C52.4793 45.3463 53.0371 43.7158 53.2839 42.4929C53.3375 42.2141 53.4984 41.6026 53.4555 41.3559C53.3911 40.9054 52.7904 40.5729 52.4793 40.3047C51.9109 39.7898 51.5568 39.35 50.9562 38.8673C50.7309 39.2213 50.216 39.4573 50.0229 39.7469ZM36.6038 27.2932C35.9387 28.0333 36.0782 29.4064 36.1533 30.3932C37.3654 29.6316 38.9637 30.4576 38.953 31.7448C39.5322 31.7341 39.1675 31.0261 39.0602 30.5648C38.717 29.0738 39.6395 27.4648 39.1032 26.1025C38.0626 26.1883 37.2152 26.6067 36.6038 27.2932ZM41.3879 23.0132C39.8755 23.4423 37.9339 24.5471 37.3118 25.9095C37.7945 25.8344 38.127 25.5984 38.599 25.5662C38.7813 25.5555 39.0173 25.6413 39.2211 25.5876C39.6288 25.4804 39.9827 24.5579 40.2938 24.2146C40.5941 23.8821 40.9589 23.7319 41.2056 23.4316C41.3665 23.3565 41.6024 23.3565 41.6132 23.1205C41.5488 23.0454 41.4737 22.9918 41.3879 23.0132ZM49.2721 23.4208C47.6952 22.5305 45.035 21.8655 43.3617 22.7022C42.0101 23.3779 40.1866 24.4935 39.5644 25.8987C40.1436 27.261 39.3928 28.5053 39.3391 29.8891C39.3177 30.6292 39.6824 31.2621 39.7146 32.0666C39.5107 32.3991 38.9101 32.4313 38.4917 32.4098C38.3523 31.7019 38.1055 30.9081 37.3761 30.8223C36.3464 30.7043 35.5848 31.5624 35.5418 32.4528C35.4882 33.504 36.3464 35.2417 37.5692 35.1237C38.0412 35.0808 38.1592 34.6088 38.6741 34.6088C38.953 35.1666 38.245 35.3382 38.1699 35.7351C38.1485 35.8424 38.2236 36.2393 38.2772 36.4323C38.5024 37.3441 38.9959 38.5348 39.4786 39.232C40.1007 40.1223 41.3128 40.2511 42.6215 40.3369C42.8575 39.8327 43.7156 39.8756 44.2734 40.0043C43.5976 39.7362 42.9755 39.0926 42.4606 38.524C41.8706 37.8697 41.2699 37.1725 41.2377 36.3144C42.3641 37.8697 43.2866 39.232 45.3247 39.9185C46.8693 40.4334 48.6713 39.6826 49.862 38.8458C50.3555 38.5026 50.6451 37.9448 50.9991 37.4514C52.3077 35.5635 52.9192 32.8818 52.7904 30.2752C52.7368 29.2025 52.7368 28.1299 52.3721 27.4112C51.9967 26.6603 50.7202 25.9738 49.9693 26.6603C49.8299 25.9202 50.5915 25.4696 51.4818 25.7378C50.8489 24.9119 50.1838 23.9357 49.2721 23.4208ZM52.2112 47.674C53.4448 47.0625 55.7403 46.0328 56.5019 47.674C56.7915 48.2854 57.124 49.3044 57.2635 49.9373C57.4673 50.8169 57.0382 52.6833 56.1265 52.9729C55.3219 53.2304 54.3887 53.2197 53.4233 53.0266C53.3053 52.93 53.1873 52.7691 53.0908 52.5975C52.4042 52.5761 51.7499 52.6297 51.2136 52.9193C51.2672 53.4342 50.924 53.5093 50.5915 53.6165C50.3555 54.5712 51.0742 55.8155 50.9025 56.6737C50.7845 57.2958 50.0229 57.3924 49.4651 57.4996C49.4437 57.8429 49.4866 58.1325 49.5295 58.4221C49.4008 58.8941 48.8323 59.1623 48.2852 59.2266C46.4939 59.4411 43.78 59.5377 42.0637 58.9155C41.581 57.7356 41.2056 56.3089 40.8087 54.9681C39.1353 55.1505 37.773 54.2494 36.4965 53.6487C36.0568 53.4449 35.4453 53.3269 35.2737 52.9729C35.1128 52.6297 35.1772 51.9754 35.1343 51.3639C35.0377 49.7871 34.9412 48.2639 34.5335 46.6549C34.3512 45.9255 34.0187 45.2926 33.7934 44.5954C33.5789 43.9518 33.2142 43.1473 33.1176 42.5037C32.9782 41.549 33.8792 41.4954 34.4478 41.077C35.3381 40.4334 36.0353 40.0794 37.0007 39.5002C37.2903 39.3286 38.1485 38.8995 38.245 38.6957C38.4381 38.2988 37.9125 37.741 37.773 37.4299C37.5478 36.9365 37.4298 36.5182 37.3976 36.0354C36.5931 35.9067 35.9709 35.424 35.6062 34.8877C34.9948 33.9867 34.5657 32.324 35.1021 31.069C35.145 30.9725 35.3488 30.7686 35.381 30.6185C35.4453 30.3181 35.263 29.9212 35.2522 29.5994C35.1986 27.9582 35.5312 26.5423 36.636 26.0489C37.0865 24.2575 38.6955 23.6676 40.208 22.7772C40.7765 22.4447 41.3987 22.2302 42.0423 21.9942C44.3485 21.1468 47.899 21.3077 49.8191 22.7558C50.6343 23.3672 51.9323 24.6651 52.3936 25.6091C53.6271 28.087 53.5306 32.2382 52.6724 35.2631C52.5545 35.6707 52.3936 36.2607 52.1576 36.7541C51.9967 37.0974 51.4925 37.7732 51.5461 38.0735C51.6105 38.3846 52.7046 39.2106 52.9406 39.4358C53.3589 39.8434 54.1635 40.3798 54.2278 40.8947C54.3029 41.4417 53.9918 42.1926 53.8309 42.7182C53.3161 44.4774 52.8011 46.0971 52.2112 47.674Z"/>
</mask>
<path d="M48.9503 53.8418C48.9181 54.6463 49.0254 55.9228 49.0682 56.7702C49.6046 56.7702 49.8299 56.6522 50.2267 56.5235C50.2697 55.5366 49.9156 54.6249 49.8084 53.7238C49.5939 53.6487 49.2077 53.8525 48.9503 53.8418ZM40.6692 49.2937C41.0232 52.5224 41.5274 55.2255 42.4606 58.0896C44.5309 58.7224 47.0195 58.7761 48.8537 58.2076C48.5212 56.5986 48.6607 54.6356 48.4676 52.9086C48.3174 51.6107 48.3925 50.3127 48.1887 48.9934C45.9682 48.5321 42.8361 48.8861 40.6692 49.2937ZM48.7143 49.0148C48.6928 50.3986 48.7786 51.7716 48.8859 53.1553C49.4223 53.0802 49.7762 53.0266 50.2697 52.9086C50.1088 51.5785 50.1302 50.066 49.7977 48.8861C49.4223 48.8968 49.0897 48.8861 48.7143 49.0148ZM51.4067 48.7895C51.1493 48.7359 50.8596 48.7895 50.6236 48.7895C50.7416 49.9158 51.0098 51.1601 51.1063 52.3508C51.4818 52.3615 51.6856 52.1792 51.9967 52.1255C52.0181 51.0851 51.9109 49.6477 51.4067 48.7895ZM55.4936 52.5224C56.2873 52.3294 56.7808 51.3639 56.5555 50.3664C56.4053 49.7013 56.1479 48.4356 55.8583 48.0065C55.6545 47.6954 55.086 47.2771 54.6247 47.5667C53.8845 48.0387 52.5866 48.1781 52.0503 48.7466C52.3185 49.6477 52.4042 50.8705 52.5115 52.0075C53.434 52.0612 54.5604 51.7501 55.3327 52.0826C54.7963 52.2543 54.1098 52.2543 53.6485 52.5117C54.0347 52.6941 54.9143 52.6619 55.4936 52.5224ZM48.135 47.7061C47.5773 46.3975 47.0731 45.0459 46.2471 43.9947C45.4426 44.531 44.563 45.0459 44.327 46.022C45.4855 46.6763 46.8264 47.3092 48.135 47.7061ZM49.5081 43.6621C49.4544 44.9708 49.3042 46.6871 48.961 47.7061C49.7869 46.6442 50.4627 45.4214 51.1599 44.2199C50.8596 43.7372 50.2375 43.3189 49.5081 43.6621ZM47.9527 43.1151C47.6416 43.0829 47.3734 43.4798 46.9658 43.3082C46.8693 43.4154 46.7835 43.5227 46.6869 43.63C47.588 44.7241 48.0063 46.2688 48.7035 47.5452C49.079 46.3116 49.0361 44.9708 49.1219 43.63C48.607 43.6514 48.3174 43.1473 47.9527 43.1151ZM46.9551 41.7957C46.9229 42.1711 47.0087 42.2891 47.0838 42.7182C48.3067 43.1043 48.1029 41.0341 46.9551 41.7957ZM45.5928 41.3452C45.0672 41.0556 44.2734 40.7445 43.5869 40.6157C42.7395 40.4549 42.8253 41.7743 42.8575 42.5573C42.8897 43.1794 43.2115 43.8338 43.3509 44.2521C43.4153 44.4452 43.4367 44.649 43.5976 44.6919C43.8873 44.7563 44.8527 44.3808 45.1208 44.2307C45.7001 43.9196 46.1506 43.4154 46.644 43.0722C46.6547 42.9113 46.6547 42.7397 46.6655 42.5787C46.3651 42.4286 46.0326 42.332 45.5928 42.3106C45.8824 42.1604 46.3222 42.1604 46.5904 41.9888C46.5904 41.9244 46.5904 41.86 46.6011 41.7957C46.1077 41.7421 45.9253 41.5276 45.5928 41.3452ZM40.5512 40.4334C40.1115 40.8839 41.7848 41.4846 42.3104 41.5168C42.3104 41.2379 42.4713 40.9698 42.4392 40.766C41.8063 40.6587 40.9803 40.7338 40.5512 40.4334ZM45.9575 40.6372C45.9575 40.6801 45.9039 40.6694 45.8931 40.7016C46.4617 41.1414 46.88 41.2379 47.6416 41.195C47.9848 40.9483 48.2959 40.6479 48.6607 40.412C47.8239 40.487 46.7727 41.002 45.9575 40.6372ZM50.9133 42.139C50.8918 41.6455 50.7631 40.6265 50.452 40.4442C49.8084 40.0687 48.6713 41.2057 48.1887 41.3774C48.2423 41.5276 48.3281 41.6455 48.3389 41.8386C48.6285 41.7635 48.9717 41.8172 49.2184 41.9351C48.9288 41.9673 48.6177 41.9673 48.4247 42.1068C48.3603 42.3106 48.4461 42.5787 48.3925 42.8577C49.0682 43.0507 49.8513 43.1473 50.7094 43.1794C50.8703 42.9649 50.9347 42.5573 50.9133 42.139ZM39.8111 40.8625C39.6716 40.766 38.7384 39.5538 38.6097 39.6074C36.9256 40.2725 35.3488 41.4203 33.9436 42.5144C35.2844 45.3999 35.8315 48.929 35.928 52.3294C37.462 53.048 38.8135 54.0885 40.9052 54.1958C40.6585 52.4903 40.444 50.9563 40.3045 49.3473C39.7789 49.1221 39.0281 49.358 38.5346 49.283C38.5346 48.693 39.2855 49.0255 39.3498 48.6286C39.3928 48.3283 38.9315 48.3068 39.0817 47.8349C39.4679 47.9743 39.6716 48.2854 40.0793 48.4034C40.4547 47.5881 40.0793 46.14 40.1329 45.4535C40.1436 45.3248 40.1973 44.7455 40.4869 44.8421C40.7444 44.9279 40.4762 46.3975 40.4976 47.0411C40.519 47.6418 40.4225 48.2103 40.6692 48.5857C42.6859 48.3068 44.7347 48.1352 46.9229 48.0709C46.4402 47.867 45.8717 47.674 45.2496 47.32C44.9063 47.1269 43.8444 46.73 43.7478 46.4082C43.5869 45.8933 44.1554 45.6251 44.2519 45.1854C43.2329 45.7432 43.0398 44.649 42.7931 43.8874C42.5786 43.1902 42.4499 42.6646 42.3962 42.2677C41.5059 41.8172 40.562 41.3988 39.8111 40.8625ZM50.0229 39.7469C51.4281 39.0711 51.6856 42.2891 51.1278 43.3297C51.2136 43.6407 51.5032 43.7587 51.6212 44.0376C50.8382 45.4428 49.9693 46.7515 49.1648 48.1352C49.7548 47.7598 50.6129 48.0709 51.3102 47.7919C51.5676 47.6954 51.7499 47.1054 51.943 46.6335C52.4793 45.3463 53.0371 43.7158 53.2839 42.4929C53.3375 42.2141 53.4984 41.6026 53.4555 41.3559C53.3911 40.9054 52.7904 40.5729 52.4793 40.3047C51.9109 39.7898 51.5568 39.35 50.9562 38.8673C50.7309 39.2213 50.216 39.4573 50.0229 39.7469ZM36.6038 27.2932C35.9387 28.0333 36.0782 29.4064 36.1533 30.3932C37.3654 29.6316 38.9637 30.4576 38.953 31.7448C39.5322 31.7341 39.1675 31.0261 39.0602 30.5648C38.717 29.0738 39.6395 27.4648 39.1032 26.1025C38.0626 26.1883 37.2152 26.6067 36.6038 27.2932ZM41.3879 23.0132C39.8755 23.4423 37.9339 24.5471 37.3118 25.9095C37.7945 25.8344 38.127 25.5984 38.599 25.5662C38.7813 25.5555 39.0173 25.6413 39.2211 25.5876C39.6288 25.4804 39.9827 24.5579 40.2938 24.2146C40.5941 23.8821 40.9589 23.7319 41.2056 23.4316C41.3665 23.3565 41.6024 23.3565 41.6132 23.1205C41.5488 23.0454 41.4737 22.9918 41.3879 23.0132ZM49.2721 23.4208C47.6952 22.5305 45.035 21.8655 43.3617 22.7022C42.0101 23.3779 40.1866 24.4935 39.5644 25.8987C40.1436 27.261 39.3928 28.5053 39.3391 29.8891C39.3177 30.6292 39.6824 31.2621 39.7146 32.0666C39.5107 32.3991 38.9101 32.4313 38.4917 32.4098C38.3523 31.7019 38.1055 30.9081 37.3761 30.8223C36.3464 30.7043 35.5848 31.5624 35.5418 32.4528C35.4882 33.504 36.3464 35.2417 37.5692 35.1237C38.0412 35.0808 38.1592 34.6088 38.6741 34.6088C38.953 35.1666 38.245 35.3382 38.1699 35.7351C38.1485 35.8424 38.2236 36.2393 38.2772 36.4323C38.5024 37.3441 38.9959 38.5348 39.4786 39.232C40.1007 40.1223 41.3128 40.2511 42.6215 40.3369C42.8575 39.8327 43.7156 39.8756 44.2734 40.0043C43.5976 39.7362 42.9755 39.0926 42.4606 38.524C41.8706 37.8697 41.2699 37.1725 41.2377 36.3144C42.3641 37.8697 43.2866 39.232 45.3247 39.9185C46.8693 40.4334 48.6713 39.6826 49.862 38.8458C50.3555 38.5026 50.6451 37.9448 50.9991 37.4514C52.3077 35.5635 52.9192 32.8818 52.7904 30.2752C52.7368 29.2025 52.7368 28.1299 52.3721 27.4112C51.9967 26.6603 50.7202 25.9738 49.9693 26.6603C49.8299 25.9202 50.5915 25.4696 51.4818 25.7378C50.8489 24.9119 50.1838 23.9357 49.2721 23.4208ZM52.2112 47.674C53.4448 47.0625 55.7403 46.0328 56.5019 47.674C56.7915 48.2854 57.124 49.3044 57.2635 49.9373C57.4673 50.8169 57.0382 52.6833 56.1265 52.9729C55.3219 53.2304 54.3887 53.2197 53.4233 53.0266C53.3053 52.93 53.1873 52.7691 53.0908 52.5975C52.4042 52.5761 51.7499 52.6297 51.2136 52.9193C51.2672 53.4342 50.924 53.5093 50.5915 53.6165C50.3555 54.5712 51.0742 55.8155 50.9025 56.6737C50.7845 57.2958 50.0229 57.3924 49.4651 57.4996C49.4437 57.8429 49.4866 58.1325 49.5295 58.4221C49.4008 58.8941 48.8323 59.1623 48.2852 59.2266C46.4939 59.4411 43.78 59.5377 42.0637 58.9155C41.581 57.7356 41.2056 56.3089 40.8087 54.9681C39.1353 55.1505 37.773 54.2494 36.4965 53.6487C36.0568 53.4449 35.4453 53.3269 35.2737 52.9729C35.1128 52.6297 35.1772 51.9754 35.1343 51.3639C35.0377 49.7871 34.9412 48.2639 34.5335 46.6549C34.3512 45.9255 34.0187 45.2926 33.7934 44.5954C33.5789 43.9518 33.2142 43.1473 33.1176 42.5037C32.9782 41.549 33.8792 41.4954 34.4478 41.077C35.3381 40.4334 36.0353 40.0794 37.0007 39.5002C37.2903 39.3286 38.1485 38.8995 38.245 38.6957C38.4381 38.2988 37.9125 37.741 37.773 37.4299C37.5478 36.9365 37.4298 36.5182 37.3976 36.0354C36.5931 35.9067 35.9709 35.424 35.6062 34.8877C34.9948 33.9867 34.5657 32.324 35.1021 31.069C35.145 30.9725 35.3488 30.7686 35.381 30.6185C35.4453 30.3181 35.263 29.9212 35.2522 29.5994C35.1986 27.9582 35.5312 26.5423 36.636 26.0489C37.0865 24.2575 38.6955 23.6676 40.208 22.7772C40.7765 22.4447 41.3987 22.2302 42.0423 21.9942C44.3485 21.1468 47.899 21.3077 49.8191 22.7558C50.6343 23.3672 51.9323 24.6651 52.3936 25.6091C53.6271 28.087 53.5306 32.2382 52.6724 35.2631C52.5545 35.6707 52.3936 36.2607 52.1576 36.7541C51.9967 37.0974 51.4925 37.7732 51.5461 38.0735C51.6105 38.3846 52.7046 39.2106 52.9406 39.4358C53.3589 39.8434 54.1635 40.3798 54.2278 40.8947C54.3029 41.4417 53.9918 42.1926 53.8309 42.7182C53.3161 44.4774 52.8011 46.0971 52.2112 47.674Z" fill="#231F20" stroke="black" stroke-width="2" mask="url(#path-58-inside-2_122_1833)"/>
<path d="M44.0051 35.4885C44.0694 35.4027 44.4342 35.2632 44.949 35.5099C44.949 35.5099 44.3376 35.6065 44.3912 36.6255L44.1338 36.5719C44.1445 36.5826 43.8764 35.6601 44.0051 35.4885Z" fill="#F7E4CD"/>
<path d="M48.4461 44.1986C48.4461 44.3487 48.3174 44.4775 48.1672 44.4775C48.0171 44.4775 47.8883 44.3487 47.8883 44.1986C47.8883 44.0484 48.0171 43.9197 48.1672 43.9197C48.3281 43.9197 48.4461 44.0484 48.4461 44.1986Z" fill="#1D1919"/>
<path d="M48.7248 45.4966C48.7248 45.6467 48.596 45.7754 48.4459 45.7754C48.2957 45.7754 48.167 45.6467 48.167 45.4966C48.167 45.3464 48.2957 45.2177 48.4459 45.2177C48.6068 45.2177 48.7248 45.3357 48.7248 45.4966Z" fill="#1D1919"/>
<path d="M34.1155 61.9083C34.0297 61.9191 33.9546 61.9298 33.8903 61.9405C33.8259 61.9512 33.7616 61.9619 33.6758 61.9834C33.5792 62.0049 33.5256 62.0478 33.5041 62.1121C33.4827 62.1765 33.4612 62.2409 33.4612 62.3266V64.944C33.4612 65.18 33.4076 65.4052 33.311 65.609C33.2145 65.8129 33.0858 65.9738 32.9142 66.1132C32.7425 66.2419 32.5494 66.3492 32.3349 66.4135C32.1204 66.4779 31.8951 66.5208 31.6591 66.5208C31.2408 66.5208 30.9082 66.4243 30.6508 66.2204C30.3934 66.0167 30.2647 65.7485 30.2647 65.3945C30.2647 65.1907 30.3183 65.0191 30.4363 64.8796C30.5543 64.7402 30.7152 64.6758 30.919 64.6758C31.1121 64.6758 31.2623 64.7295 31.3802 64.8474C31.4982 64.9655 31.5519 65.1049 31.5519 65.2658C31.5519 65.4052 31.4982 65.5447 31.4017 65.6627C31.3051 65.7807 31.1872 65.8987 31.0584 65.9952V66.0381C31.0799 66.081 31.1228 66.1239 31.1872 66.1561C31.2515 66.1883 31.3266 66.199 31.391 66.199C31.6591 66.199 31.8737 66.1025 32.0238 65.9094C32.174 65.7163 32.2491 65.4267 32.2491 65.0405V62.3588C32.2491 62.2838 32.2384 62.2087 32.2169 62.155C32.1955 62.1014 32.1311 62.0585 32.0346 62.0156C31.9702 61.9834 31.8844 61.9619 31.7879 61.9405C31.6913 61.9191 31.6162 61.9083 31.5519 61.8976V61.6401H34.0833V61.9083H34.1155Z" fill="#231F20"/>
<path d="M38.084 65.5983C38.0089 65.727 37.9123 65.845 37.8051 65.963C37.6978 66.081 37.5691 66.1668 37.4296 66.2526C37.2795 66.3384 37.1293 66.4028 36.9791 66.4457C36.8289 66.4886 36.6466 66.5101 36.4535 66.5101C36.121 66.5101 35.8421 66.4671 35.5954 66.3706C35.3594 66.2741 35.1556 66.1561 35.0054 65.9952C34.8445 65.8343 34.7372 65.6519 34.6514 65.4374C34.5763 65.2228 34.5334 64.9869 34.5334 64.7401C34.5334 64.5149 34.5763 64.2896 34.6622 64.0858C34.748 63.882 34.8659 63.6889 35.0161 63.528C35.1663 63.3671 35.3594 63.2384 35.5954 63.1419C35.8314 63.0453 36.0888 62.9917 36.3677 62.9917C36.6788 62.9917 36.9362 63.0346 37.14 63.1097C37.3438 63.1848 37.5047 63.292 37.6335 63.4207C37.7622 63.5495 37.848 63.6997 37.9123 63.8713C37.966 64.0429 37.9982 64.2253 37.9982 64.4184V64.6329H35.7348C35.7348 65.0941 35.8206 65.4374 36.003 65.6734C36.1746 65.9093 36.4643 66.0274 36.8397 66.0274C37.0542 66.0274 37.2366 65.9737 37.4082 65.8557C37.5798 65.7378 37.7193 65.5983 37.8373 65.4159L38.084 65.5983ZM36.8075 64.3218C36.8075 64.1931 36.7967 64.0536 36.7861 63.9142C36.7753 63.7748 36.7539 63.6567 36.7109 63.5709C36.668 63.4637 36.6252 63.3886 36.5501 63.3349C36.4857 63.2813 36.3998 63.2598 36.3033 63.2598C36.1317 63.2598 35.9923 63.3457 35.8957 63.5173C35.7884 63.6889 35.7348 63.9678 35.7241 64.3432L36.8075 64.3218Z" fill="#231F20"/>
<path d="M42.8145 66.3922H40.7979V66.1454C40.8408 66.1454 40.8944 66.1347 40.9481 66.124C41.0124 66.1133 41.0553 66.1026 41.0875 66.0918C41.1304 66.0704 41.1626 66.0275 41.1841 65.9845C41.2055 65.9416 41.2162 65.8666 41.2162 65.7807V64.2146C41.2162 63.9894 41.1733 63.8177 41.0875 63.6998C41.0017 63.5818 40.8837 63.5281 40.7121 63.5281C40.6263 63.5281 40.5405 63.5389 40.4654 63.571C40.3903 63.5925 40.3152 63.6354 40.2401 63.689C40.1758 63.7319 40.1221 63.7749 40.0792 63.8285C40.0363 63.8714 40.0041 63.9143 39.9827 63.9572V65.7485C39.9827 65.8236 39.9934 65.888 40.0149 65.9416C40.0363 65.9953 40.0792 66.0382 40.1221 66.0596C40.1543 66.0811 40.1972 66.1026 40.2508 66.1133C40.3045 66.124 40.3581 66.1347 40.4117 66.1454V66.3922H38.3737V66.1454C38.4273 66.1454 38.4809 66.1347 38.5453 66.124C38.5989 66.1133 38.6525 66.1026 38.6955 66.0918C38.7706 66.0704 38.8134 66.0275 38.8456 65.9738C38.8671 65.9202 38.8885 65.8558 38.8885 65.77V63.8177C38.8885 63.7534 38.8671 63.6783 38.8349 63.614C38.8027 63.5496 38.7491 63.4959 38.6955 63.453C38.6525 63.4316 38.6097 63.3994 38.5453 63.3887C38.4809 63.3672 38.4165 63.3565 38.3415 63.3565V63.1098L39.9398 63.024L39.9934 63.0776V63.5603H40.0041C40.0685 63.5067 40.1436 63.4423 40.2294 63.3565C40.3152 63.2814 40.401 63.2171 40.4761 63.1634C40.5619 63.1098 40.6692 63.0669 40.7979 63.024C40.9266 62.9811 41.0768 62.9703 41.227 62.9703C41.5916 62.9703 41.8598 63.0776 42.0422 63.2814C42.2245 63.4852 42.3104 63.7641 42.3104 64.1073V65.7485C42.3104 65.8344 42.3211 65.8987 42.3426 65.9416C42.364 65.9953 42.4176 66.0275 42.482 66.0596C42.5141 66.0704 42.5571 66.0918 42.6107 66.1026C42.6644 66.1133 42.718 66.124 42.7931 66.1347V66.3922H42.8145Z" fill="#231F20"/>
<path d="M47.4274 66.3922H45.8506C45.6575 66.0489 45.4752 65.7593 45.3143 65.5233C45.1534 65.2873 45.0032 65.062 44.8637 64.869L44.6707 65.0406V65.77C44.6707 65.8451 44.6814 65.9202 44.7028 65.9631C44.7243 66.0167 44.7672 66.0489 44.8423 66.0811C44.8852 66.1026 44.9281 66.1133 44.9818 66.124C45.0354 66.1347 45.089 66.1454 45.1427 66.1454V66.3922H43.0616V66.1454C43.1153 66.1454 43.1689 66.1347 43.2333 66.124C43.2869 66.1133 43.3406 66.1026 43.3835 66.0918C43.4585 66.0704 43.5015 66.0275 43.5336 65.9738C43.5551 65.9202 43.5766 65.8558 43.5766 65.77V62.0371C43.5766 61.962 43.5551 61.8869 43.5229 61.8119C43.4907 61.7368 43.4478 61.6724 43.3835 61.6295C43.3406 61.6081 43.2762 61.5759 43.1904 61.5651C43.1046 61.5437 43.0295 61.533 42.9544 61.533V61.2863L44.617 61.2004L44.6707 61.2541V64.7081C44.8316 64.5579 45.0246 64.3863 45.2284 64.1932C45.4323 64.0001 45.6039 63.8392 45.7219 63.7105C45.797 63.6354 45.8399 63.5818 45.8399 63.5389C45.8506 63.4959 45.8506 63.4745 45.8506 63.4638C45.8506 63.4209 45.8184 63.3887 45.7433 63.3672C45.6683 63.3458 45.5717 63.3136 45.4215 63.2921V63.0562H47.1164V63.2921C46.8911 63.3565 46.7195 63.4101 46.6015 63.4638C46.4835 63.5174 46.3548 63.5925 46.2153 63.6783C46.1188 63.7427 46.033 63.807 45.9471 63.8714C45.8613 63.9358 45.7648 64.0216 45.6468 64.1181C45.8613 64.4399 46.0652 64.7295 46.2475 64.9977C46.4298 65.2659 46.6229 65.5555 46.8267 65.8558C46.8911 65.9631 46.9769 66.0275 47.0842 66.0704C47.1914 66.1026 47.288 66.124 47.3953 66.1347V66.3922H47.4274Z" fill="#231F20"/>
<path d="M49.5728 66.3921H47.4596V66.1454C47.5132 66.1454 47.5776 66.1346 47.6313 66.1239C47.6849 66.1132 47.7385 66.1024 47.7707 66.0917C47.8458 66.0703 47.8887 66.0274 47.9209 65.9737C47.9531 65.9201 47.9638 65.8557 47.9638 65.7699V63.8177C47.9638 63.7426 47.9423 63.6675 47.9101 63.6138C47.878 63.5495 47.8351 63.5066 47.7814 63.4744C47.7385 63.4529 47.6849 63.4208 47.5991 63.3993C47.5132 63.3779 47.4382 63.3564 47.3738 63.3564V63.1097L49.015 63.0239L49.0686 63.0775V65.7377C49.0686 65.8128 49.0901 65.8772 49.1223 65.9415C49.1544 65.9952 49.2081 66.0381 49.2617 66.0596C49.3046 66.081 49.3583 66.1024 49.4119 66.1132C49.4655 66.1239 49.5192 66.1346 49.5835 66.1454V66.3921H49.5728ZM49.0901 61.8332C49.0901 62.0048 49.0257 62.1443 48.897 62.2623C48.7683 62.3803 48.6074 62.4446 48.4357 62.4446C48.2534 62.4446 48.1032 62.3803 47.9638 62.2623C47.8351 62.1443 47.7707 61.9941 47.7707 61.8332C47.7707 61.6616 47.8351 61.5221 47.9638 61.3934C48.0925 61.2754 48.2534 61.2111 48.4357 61.2111C48.6181 61.2111 48.7683 61.2754 48.897 61.3934C49.0257 61.5114 49.0901 61.6616 49.0901 61.8332Z" fill="#231F20"/>
<path d="M54.303 66.3922H52.2864V66.1454C52.3294 66.1454 52.383 66.1347 52.4366 66.124C52.501 66.1133 52.5439 66.1026 52.5761 66.0918C52.619 66.0704 52.6512 66.0275 52.6726 65.9845C52.694 65.9416 52.7048 65.8666 52.7048 65.7807V64.2146C52.7048 63.9894 52.6618 63.8177 52.5761 63.6998C52.4903 63.5818 52.3722 63.5281 52.2006 63.5281C52.1148 63.5281 52.029 63.5389 51.9539 63.571C51.8788 63.6032 51.8038 63.6354 51.7286 63.689C51.6643 63.7319 51.6106 63.7749 51.5678 63.8285C51.5248 63.8714 51.4926 63.9143 51.4712 63.9572V65.7485C51.4712 65.8236 51.4819 65.888 51.5034 65.9416C51.5248 65.9953 51.5678 66.0382 51.6106 66.0596C51.6428 66.0811 51.6857 66.1026 51.7394 66.1133C51.793 66.124 51.8466 66.1347 51.9003 66.1454V66.3922H49.8622V66.1454C49.9158 66.1454 49.9695 66.1347 50.0338 66.124C50.0875 66.1133 50.1411 66.1026 50.184 66.0918C50.2591 66.0704 50.302 66.0275 50.3341 65.9738C50.3556 65.9202 50.3771 65.8558 50.3771 65.77V63.8177C50.3771 63.7534 50.3556 63.6783 50.3235 63.614C50.2913 63.5496 50.2376 63.4959 50.184 63.453C50.1411 63.4316 50.0982 63.3994 50.0338 63.3887C49.9695 63.3672 49.9051 63.3565 49.83 63.3565V63.1098L51.4283 63.024L51.4819 63.0776V63.5603H51.4927C51.557 63.5067 51.6321 63.4423 51.7179 63.3565C51.8038 63.2814 51.8895 63.2171 51.9646 63.1634C52.0504 63.1098 52.1577 63.0669 52.2864 63.024C52.4152 62.9811 52.5653 62.9703 52.7155 62.9703C53.0802 62.9703 53.3484 63.0776 53.5307 63.2814C53.7131 63.4852 53.7989 63.7641 53.7989 64.1073V65.7485C53.7989 65.8344 53.8096 65.8987 53.8311 65.9416C53.8525 65.9953 53.9061 66.0275 53.9705 66.0596C54.0027 66.0704 54.0456 66.0918 54.0992 66.1026C54.1529 66.1133 54.2065 66.124 54.2816 66.1347V66.3922H54.303Z" fill="#231F20"/>
<path d="M56.1587 66.5101C55.9442 66.5101 55.7297 66.4779 55.5258 66.4135C55.322 66.3492 55.1611 66.2848 55.0432 66.2097L54.9466 66.435H54.6892L54.6463 65.1907H54.8929C54.9251 65.2872 54.9788 65.4052 55.0646 65.5339C55.1397 65.6626 55.2362 65.7699 55.3328 65.8772C55.44 65.9737 55.558 66.0595 55.6975 66.1346C55.8369 66.199 55.9763 66.2419 56.1266 66.2419C56.3304 66.2419 56.4805 66.199 56.5771 66.1239C56.6736 66.0488 56.7272 65.9201 56.7272 65.7592C56.7272 65.6734 56.7058 65.5983 56.6629 65.5339C56.62 65.4803 56.5556 65.4267 56.4805 65.3837C56.3947 65.3409 56.2982 65.2979 56.1909 65.2658C56.0836 65.2336 55.9549 65.2014 55.8048 65.1478C55.6546 65.1049 55.5258 65.0619 55.4186 65.0083C55.3113 64.9654 55.1933 64.8903 55.0861 64.7938C54.9895 64.708 54.9037 64.6007 54.8501 64.4827C54.7857 64.3647 54.7642 64.2145 54.7642 64.0429C54.7642 63.7318 54.8929 63.4744 55.1611 63.2813C55.4293 63.0883 55.7726 62.9917 56.2016 62.9917C56.4054 62.9917 56.5878 63.0132 56.7594 63.0561C56.931 63.0989 57.0705 63.1419 57.1885 63.1955L57.2636 63.0024H57.521L57.5746 64.1394H57.3387C57.2636 63.9035 57.1241 63.7104 56.9418 63.5388C56.7487 63.3671 56.5449 63.2813 56.3304 63.2813C56.1587 63.2813 56.0193 63.3135 55.9227 63.3886C55.8262 63.4637 55.7726 63.5602 55.7726 63.6889C55.7726 63.8606 55.8476 63.9785 55.9871 64.0536C56.1266 64.1287 56.3304 64.2038 56.5878 64.2681C56.9847 64.3754 57.2743 64.5149 57.4674 64.6865C57.6497 64.8689 57.7463 65.0941 57.7463 65.3623C57.7463 65.727 57.6068 66.0166 57.3172 66.2097C56.9954 66.4028 56.62 66.5101 56.1587 66.5101Z" fill="#231F20"/>
</g>
<defs>
<filter id="filter0_dd_122_1833" x="0" y="0" width="88" height="88" filterUnits="userSpaceOnUse" color-interpolation-filters="sRGB">
<feFlood flood-opacity="0" result="BackgroundImageFix"/>
<feColorMatrix in="SourceAlpha" type="matrix" values="0 0 0 0 0 0 0 0 0 0 0 0 0 0 0 0 0 0 127 0" result="hardAlpha"/>
<feOffset dx="4" dy="-4"/>
<feGaussianBlur stdDeviation="5"/>
<feComposite in2="hardAlpha" operator="out"/>
<feColorMatrix type="matrix" values="0 0 0 0 0.909804 0 0 0 0 0.843137 0 0 0 0 0.984314 0 0 0 0.8 0"/>
<feBlend mode="normal" in2="BackgroundImageFix" result="effect1_dropShadow_122_1833"/>
<feColorMatrix in="SourceAlpha" type="matrix" values="0 0 0 0 0 0 0 0 0 0 0 0 0 0 0 0 0 0 127 0" result="hardAlpha"/>
<feOffset dx="-4" dy="4"/>
<feGaussianBlur stdDeviation="5"/>
<feComposite in2="hardAlpha" operator="out"/>
<feColorMatrix type="matrix" values="0 0 0 0 0.909804 0 0 0 0 0.843137 0 0 0 0 0.984314 0 0 0 0.8 0"/>
<feBlend mode="normal" in2="effect1_dropShadow_122_1833" result="effect2_dropShadow_122_1833"/>
<feBlend mode="normal" in="SourceGraphic" in2="effect2_dropShadow_122_1833" result="shape"/>
</filter>
<linearGradient id="paint0_linear_122_1833" x1="44" y1="14" x2="44" y2="74" gradientUnits="userSpaceOnUse">
<stop stop-color="#E8D7FB"/>
<stop offset="1" stop-color="#BB88F4"/>
</linearGradient>
</defs>
</svg>
