<svg width="88" height="88" viewBox="0 0 88 88" fill="none" xmlns="http://www.w3.org/2000/svg">
<g filter="url(#filter0_dd_103_51)">
<rect x="14" y="14" width="60" height="60" rx="16" fill="url(#paint0_linear_103_51)"/>
<rect x="14.5" y="14.5" width="59" height="59" rx="15.5" stroke="#E8D7FB"/>
<path d="M35.8599 65.2311C34.8115 65.2311 33.8213 64.7651 33.1514 63.9206L22.9581 51.2517C22.2883 50.4072 22.0262 49.3296 22.2883 48.2811L25.9288 32.467C26.1617 31.4185 26.8607 30.5739 27.8218 30.1079L42.5584 23.06C43.0244 22.827 43.5486 22.7105 44.0728 22.7105C44.597 22.7105 45.1213 22.827 45.5872 23.06L60.3238 30.0788C61.2849 30.5448 61.9839 31.3894 62.2169 32.4378L65.8573 48.252C66.0904 49.3005 65.8573 50.378 65.1875 51.2226L54.9942 63.8914C54.3244 64.7069 53.3342 65.202 52.2857 65.202L35.8599 65.2311Z" fill="#326DE6"/>
<path d="M44.0437 23.4386C44.4514 23.4386 44.8592 23.526 45.2377 23.7007L59.9744 30.7196C60.7316 31.0982 61.3141 31.7972 61.4888 32.6126L65.1292 48.4268C65.3331 49.2714 65.1292 50.1451 64.5759 50.8149L54.3826 63.4837C53.8584 64.1536 53.0429 64.5322 52.1983 64.5322H35.8599C35.0153 64.5322 34.1999 64.1536 33.6756 63.4837L23.4824 50.8149C22.9581 50.1451 22.7543 49.2714 22.929 48.4268L26.5695 32.6126C26.7733 31.768 27.3267 31.0691 28.0839 30.7196L42.8205 23.6716C43.1991 23.526 43.6359 23.4386 44.0437 23.4386ZM44.0437 22.0698C43.4321 22.0698 42.8205 22.2154 42.238 22.4776L27.5014 29.5255C26.3365 30.0788 25.521 31.0982 25.2298 32.3505L21.5893 48.1647C21.2981 49.417 21.5893 50.6984 22.4048 51.7177L32.5981 64.3866C33.3844 65.3768 34.5785 65.9301 35.8308 65.9301H52.1692C53.4215 65.9301 54.6156 65.3768 55.4019 64.3866L65.5952 51.7177C66.4107 50.7275 66.7019 49.417 66.4107 48.1647L62.7703 32.3505C62.479 31.0982 61.6635 30.0788 60.4986 29.5255L45.8202 22.4776C45.2669 22.2154 44.6553 22.0698 44.0437 22.0698Z" fill="white"/>
<path d="M58.8094 47.1744C58.7802 47.1744 58.7802 47.1744 58.8094 47.1744H58.7802C58.7511 47.1744 58.722 47.1744 58.722 47.1453C58.6637 47.1453 58.6055 47.1162 58.5473 47.1162C58.3434 47.0871 58.1687 47.0579 57.9939 47.0579C57.9065 47.0579 57.8192 47.0579 57.7027 47.0288H57.6735C57.0619 46.9706 56.5669 46.9123 56.1009 46.7667C55.897 46.6793 55.8388 46.5628 55.7805 46.4463C55.7805 46.4172 55.7514 46.4172 55.7514 46.3881L55.3728 46.2716C55.5475 44.9319 55.4893 43.5339 55.1689 42.1652C54.8486 40.7963 54.2952 39.5149 53.538 38.3499L53.8292 38.0878V38.0296C53.8292 37.8839 53.8583 37.7383 53.9749 37.5927C54.3243 37.2724 54.7612 37.0102 55.2854 36.6899C55.3728 36.6316 55.4601 36.6025 55.5475 36.5443C55.7223 36.4569 55.8679 36.3695 56.0426 36.2531C56.0717 36.2239 56.13 36.1948 56.1882 36.1365C56.2174 36.1074 56.2465 36.1074 56.2465 36.0783C56.6542 35.7288 56.7416 35.1463 56.4503 34.7677C56.3047 34.5638 56.0426 34.4474 55.7805 34.4474C55.5475 34.4474 55.3436 34.5347 55.1398 34.6803L55.0815 34.7386C55.0233 34.7677 54.9942 34.826 54.9359 34.8551C54.7903 35.0007 54.6738 35.1172 54.5573 35.2628C54.4991 35.3211 54.4408 35.4084 54.3534 35.4667C53.9457 35.9035 53.5671 36.2531 53.1885 36.5152C53.1011 36.5734 53.0137 36.6025 52.9264 36.6025C52.8681 36.6025 52.8099 36.6025 52.7516 36.5734H52.6934L52.3439 36.8064C51.9653 36.3987 51.5576 36.0492 51.1498 35.6997C49.4024 34.3309 47.2764 33.4863 45.063 33.2824L45.0338 32.9038C45.0047 32.8747 45.0047 32.8747 44.9756 32.8456C44.8882 32.7582 44.7717 32.6708 44.7426 32.467C44.7135 32.001 44.7717 31.4768 44.83 30.8943V30.8652C44.83 30.7778 44.8591 30.6613 44.8882 30.5739C44.9174 30.3992 44.9465 30.2244 44.9756 30.0206V29.7584C44.9756 29.2342 44.5679 28.7974 44.0728 28.7974C43.8398 28.7974 43.6068 28.9138 43.432 29.0886C43.2573 29.2634 43.1699 29.4963 43.1699 29.7584V29.9914C43.1699 30.1953 43.1991 30.37 43.2573 30.5448C43.2864 30.6321 43.2864 30.7195 43.3156 30.836V30.8652C43.3738 31.4476 43.4612 31.9718 43.403 32.4378C43.3738 32.6417 43.2573 32.7291 43.1699 32.8164C43.1408 32.8456 43.1408 32.8456 43.1117 32.8747L43.0826 33.2533C42.5583 33.3115 42.0341 33.3698 41.5099 33.4863C39.2674 33.9814 37.287 35.1172 35.7434 36.7481L35.4521 36.5443H35.3939C35.3357 36.5443 35.2774 36.5734 35.2192 36.5734C35.1318 36.5734 35.0444 36.5443 34.9571 36.486C34.5784 36.2239 34.1998 35.8453 33.7921 35.4084C33.7338 35.3502 33.6756 35.2628 33.5882 35.2046C33.4717 35.059 33.3553 34.9425 33.2096 34.7969C33.1805 34.7677 33.1222 34.7386 33.064 34.6803C33.0349 34.6512 33.0058 34.6512 33.0058 34.6221C32.831 34.4765 32.598 34.3891 32.3651 34.3891C32.103 34.3891 31.8408 34.5056 31.6952 34.7095C31.4039 35.0881 31.4913 35.6706 31.8991 36.02C31.9282 36.02 31.9282 36.0492 31.9573 36.0492C32.0156 36.0783 32.0447 36.1365 32.103 36.1657C32.2777 36.2821 32.4233 36.3695 32.598 36.4569C32.6854 36.486 32.7728 36.5443 32.8601 36.6025C33.3844 36.9229 33.8212 37.185 34.1707 37.5054C34.3163 37.651 34.3163 37.7966 34.3163 37.9422V38.0005L34.6076 38.2626C34.5493 38.3499 34.4911 38.4082 34.4619 38.4956C33.0058 40.7963 32.4524 43.5049 32.831 46.1842L32.4524 46.3007C32.4524 46.3298 32.4233 46.3298 32.4233 46.359C32.3651 46.4755 32.2777 46.5919 32.103 46.6793C31.6661 46.825 31.1418 46.8832 30.5302 46.9414H30.5011C30.4137 46.9414 30.2973 46.9414 30.2099 46.9706C30.0352 46.9706 29.8604 46.9997 29.6565 47.0288C29.5983 47.0288 29.54 47.0579 29.4818 47.0579C29.4527 47.0579 29.4236 47.0579 29.3944 47.0871C28.8702 47.2035 28.5498 47.6987 28.6372 48.1646C28.7246 48.5724 29.1032 48.8345 29.5692 48.8345C29.6565 48.8345 29.7148 48.8345 29.8021 48.8054C29.8313 48.8054 29.8604 48.8054 29.8604 48.7762C29.9187 48.7762 29.9769 48.7471 30.0352 48.7471C30.239 48.6889 30.3846 48.6306 30.5594 48.5432C30.6468 48.5141 30.7341 48.4558 30.8215 48.4268H30.8506C31.4039 48.2229 31.8991 48.0481 32.3651 47.9899H32.4233C32.598 47.9899 32.7145 48.0773 32.8019 48.1355C32.831 48.1355 32.831 48.1646 32.8601 48.1646L33.2679 48.1064C33.9669 50.2615 35.3065 52.1837 37.0831 53.5816C37.4908 53.902 37.8986 54.1641 38.3354 54.4262L38.1607 54.8049C38.1607 54.8339 38.1898 54.8339 38.1898 54.8631C38.248 54.9796 38.3063 55.1252 38.248 55.3291C38.0733 55.7659 37.8112 56.2028 37.4908 56.6979V56.727C37.4326 56.8144 37.3743 56.8726 37.3161 56.96C37.1996 57.1056 37.1122 57.2512 36.9957 57.426C36.9666 57.4551 36.9375 57.5133 36.9083 57.5716C36.9083 57.6007 36.8792 57.6298 36.8792 57.6298C36.6462 58.125 36.821 58.6783 37.2578 58.8821C37.3743 58.9404 37.4908 58.9695 37.6073 58.9695C37.9568 58.9695 38.3063 58.7365 38.481 58.4162C38.481 58.3871 38.5101 58.3579 38.5101 58.3579C38.5393 58.2997 38.5684 58.2414 38.5975 58.2123C38.6849 58.0084 38.714 57.8628 38.7722 57.6881C38.8014 57.6007 38.8305 57.5133 38.8596 57.426C39.0635 56.8435 39.2091 56.3775 39.4712 55.9698C39.5877 55.7951 39.7333 55.7659 39.8498 55.7077C39.879 55.7077 39.879 55.7077 39.9081 55.6786L40.1119 55.2999C41.3934 55.7951 42.7913 56.0572 44.1893 56.0572C45.0338 56.0572 45.9076 55.9698 46.723 55.7659C47.2473 55.6494 47.7424 55.5038 48.2375 55.3291L48.4122 55.6494C48.4413 55.6494 48.4413 55.6494 48.4705 55.6786C48.6161 55.7077 48.7326 55.7659 48.8491 55.9407C49.082 56.3484 49.2568 56.8435 49.4607 57.3969V57.426C49.4898 57.5133 49.5189 57.6007 49.548 57.6881C49.6063 57.8628 49.6354 58.0376 49.7228 58.2123C49.7519 58.2706 49.781 58.2997 49.8101 58.3579C49.8101 58.3871 49.8393 58.4162 49.8393 58.4162C50.014 58.7656 50.3635 58.9695 50.713 58.9695C50.8295 58.9695 50.946 58.9404 51.0625 58.8821C51.2663 58.7656 51.4411 58.5909 51.4993 58.3579C51.5576 58.125 51.5576 57.8628 51.4411 57.6298C51.4411 57.6007 51.4119 57.6007 51.4119 57.5716C51.3828 57.5133 51.3537 57.4551 51.3246 57.426C51.2372 57.2512 51.1207 57.1056 51.0042 56.96C50.9459 56.8726 50.8877 56.8144 50.8295 56.727V56.6979C50.5091 56.2028 50.2179 55.7659 50.0723 55.3291C50.014 55.1252 50.0723 55.0087 50.1014 54.8631C50.1014 54.8339 50.1305 54.8339 50.1305 54.8049L49.9849 54.4554C51.5284 53.5525 52.839 52.2711 53.8292 50.6984C54.3534 49.8829 54.7612 48.9801 55.0524 48.0773L55.4019 48.1355C55.431 48.1355 55.431 48.1064 55.4601 48.1064C55.5767 48.0481 55.664 47.9608 55.8388 47.9608H55.897C56.363 48.019 56.8581 48.1937 57.4114 48.3976H57.4406C57.5279 48.4268 57.6153 48.485 57.7027 48.5141C57.8774 48.6015 58.023 48.6597 58.2269 48.718C58.2852 48.718 58.3434 48.7471 58.4016 48.7471C58.4308 48.7471 58.4599 48.7471 58.489 48.7762C58.5764 48.8054 58.6346 48.8054 58.722 48.8054C59.1589 48.8054 59.5375 48.5141 59.6539 48.1355C59.6539 47.786 59.3336 47.32 58.8094 47.1744ZM45.3251 45.7474L44.0436 46.359L42.7622 45.7474L42.4418 44.3786L43.3156 43.2718H44.7426L45.6163 44.3786L45.3251 45.7474ZM52.9264 42.7185C53.1594 43.7087 53.2176 44.6989 53.1302 45.66L48.6743 44.3786C48.2666 44.262 48.0336 43.8543 48.121 43.4466C48.1501 43.3301 48.2083 43.2136 48.2957 43.1262L51.8197 39.9517C52.3148 40.7672 52.6934 41.6992 52.9264 42.7185ZM50.4217 38.2043L46.6065 40.9128C46.2862 41.1167 45.8493 41.0584 45.5872 40.7381C45.4998 40.6507 45.4707 40.5342 45.4416 40.4177L45.1795 35.6706C47.189 35.9035 49.0238 36.8064 50.4217 38.2043ZM41.9758 35.8162C42.2962 35.7579 42.5875 35.6997 42.9078 35.6414L42.6457 40.3012C42.6166 40.709 42.2962 41.0584 41.8594 41.0584C41.7429 41.0584 41.5973 41.0293 41.5099 40.9711L37.6364 38.2043C38.8305 37.0102 40.3158 36.1948 41.9758 35.8162ZM36.2385 39.9517L39.7042 43.0389C40.0246 43.301 40.0537 43.7961 39.7916 44.1164C39.7042 44.233 39.5877 44.3203 39.4421 44.3494L34.9279 45.66C34.7532 43.6796 35.19 41.67 36.2385 39.9517ZM35.4521 47.8443L40.0828 47.0579C40.4614 47.0288 40.8109 47.2909 40.8983 47.6695C40.9274 47.8443 40.9274 47.9899 40.8692 48.1355L39.0926 52.4167C37.4617 51.3682 36.1511 49.7664 35.4521 47.8443ZM46.0823 53.6399C45.4125 53.7855 44.7426 53.8729 44.0436 53.8729C43.0243 53.8729 42.0341 53.6981 41.1021 53.4069L43.403 49.2422C43.6359 48.9801 44.0145 48.8636 44.3349 49.0383C44.4805 49.1257 44.597 49.2422 44.6844 49.3587L46.9269 53.4069C46.6648 53.4943 46.3735 53.5525 46.0823 53.6399ZM51.7614 49.5917C51.0333 50.7567 50.0723 51.6886 48.9656 52.4167L47.1308 48.019C47.0434 47.6695 47.189 47.2909 47.5385 47.1162C47.655 47.0579 47.8006 47.0288 47.9462 47.0288L52.606 47.8152C52.4313 48.4558 52.14 49.0383 51.7614 49.5917Z" fill="white"/>
</g>
<defs>
<filter id="filter0_dd_103_51" x="0" y="0" width="88" height="88" filterUnits="userSpaceOnUse" color-interpolation-filters="sRGB">
<feFlood flood-opacity="0" result="BackgroundImageFix"/>
<feColorMatrix in="SourceAlpha" type="matrix" values="0 0 0 0 0 0 0 0 0 0 0 0 0 0 0 0 0 0 127 0" result="hardAlpha"/>
<feOffset dx="4" dy="-4"/>
<feGaussianBlur stdDeviation="5"/>
<feComposite in2="hardAlpha" operator="out"/>
<feColorMatrix type="matrix" values="0 0 0 0 0.909804 0 0 0 0 0.843137 0 0 0 0 0.984314 0 0 0 0.8 0"/>
<feBlend mode="normal" in2="BackgroundImageFix" result="effect1_dropShadow_103_51"/>
<feColorMatrix in="SourceAlpha" type="matrix" values="0 0 0 0 0 0 0 0 0 0 0 0 0 0 0 0 0 0 127 0" result="hardAlpha"/>
<feOffset dx="-4" dy="4"/>
<feGaussianBlur stdDeviation="5"/>
<feComposite in2="hardAlpha" operator="out"/>
<feColorMatrix type="matrix" values="0 0 0 0 0.909804 0 0 0 0 0.843137 0 0 0 0 0.984314 0 0 0 0.8 0"/>
<feBlend mode="normal" in2="effect1_dropShadow_103_51" result="effect2_dropShadow_103_51"/>
<feBlend mode="normal" in="SourceGraphic" in2="effect2_dropShadow_103_51" result="shape"/>
</filter>
<linearGradient id="paint0_linear_103_51" x1="44" y1="14" x2="44" y2="74" gradientUnits="userSpaceOnUse">
<stop stop-color="#E8D7FB"/>
<stop offset="1" stop-color="#BB88F4"/>
</linearGradient>
</defs>
</svg>
