<svg width="1440" height="1024" viewBox="0 0 1440 1024" fill="none" xmlns="http://www.w3.org/2000/svg">
<circle cx="707.945" cy="568" r="587.122" transform="rotate(-93.3829 707.945 568)" stroke="url(#paint0_linear_1103_22)"/>
<circle cx="710.421" cy="609.9" r="545.149" transform="rotate(-93.3829 710.421 609.9)" stroke="url(#paint1_linear_1103_22)"/>
<circle cx="715.375" cy="693.7" r="461.203" transform="rotate(-93.3829 715.375 693.7)" stroke="url(#paint2_linear_1103_22)"/>
<circle cx="717.852" cy="735.6" r="419.23" transform="rotate(-93.3829 717.852 735.6)" stroke="url(#paint3_linear_1103_22)"/>
<circle cx="720.328" cy="777.5" r="377.257" transform="rotate(-93.3829 720.328 777.5)" stroke="url(#paint4_linear_1103_22)"/>
<circle cx="722.805" cy="819.399" r="335.284" transform="rotate(-93.3829 722.805 819.399)" stroke="url(#paint5_linear_1103_22)"/>
<circle cx="725.282" cy="861.299" r="293.311" transform="rotate(-93.3829 725.282 861.299)" stroke="url(#paint6_linear_1103_22)"/>
<circle cx="712.898" cy="651.8" r="503.176" transform="rotate(-93.3829 712.898 651.8)" stroke="url(#paint7_linear_1103_22)"/>
<defs>
<linearGradient id="paint0_linear_1103_22" x1="110.764" y1="543.066" x2="1143.88" y2="540.988" gradientUnits="userSpaceOnUse">
<stop stop-color="#AA4FF5"/>
<stop offset="1" stop-color="#FF6A8E" stop-opacity="0"/>
</linearGradient>
<linearGradient id="paint1_linear_1103_22" x1="155.897" y1="586.747" x2="1115.22" y2="584.817" gradientUnits="userSpaceOnUse">
<stop stop-color="#AA4FF5"/>
<stop offset="1" stop-color="#FF6A8E" stop-opacity="0"/>
</linearGradient>
<linearGradient id="paint2_linear_1103_22" x1="246.162" y1="674.108" x2="1057.9" y2="672.476" gradientUnits="userSpaceOnUse">
<stop stop-color="#AA4FF5"/>
<stop offset="1" stop-color="#FF6A8E" stop-opacity="0"/>
</linearGradient>
<linearGradient id="paint3_linear_1103_22" x1="291.294" y1="717.789" x2="1029.24" y2="716.305" gradientUnits="userSpaceOnUse">
<stop stop-color="#AA4FF5"/>
<stop offset="1" stop-color="#FF6A8E" stop-opacity="0"/>
</linearGradient>
<linearGradient id="paint4_linear_1103_22" x1="336.426" y1="761.47" x2="1000.57" y2="760.135" gradientUnits="userSpaceOnUse">
<stop stop-color="#AA4FF5"/>
<stop offset="1" stop-color="#FF6A8E" stop-opacity="0"/>
</linearGradient>
<linearGradient id="paint5_linear_1103_22" x1="381.559" y1="805.151" x2="971.912" y2="803.964" gradientUnits="userSpaceOnUse">
<stop stop-color="#AA4FF5"/>
<stop offset="1" stop-color="#FF6A8E" stop-opacity="0"/>
</linearGradient>
<linearGradient id="paint6_linear_1103_22" x1="426.691" y1="848.832" x2="943.25" y2="847.793" gradientUnits="userSpaceOnUse">
<stop stop-color="#AA4FF5"/>
<stop offset="1" stop-color="#FF6A8E" stop-opacity="0"/>
</linearGradient>
<linearGradient id="paint7_linear_1103_22" x1="201.029" y1="630.427" x2="1086.56" y2="628.646" gradientUnits="userSpaceOnUse">
<stop stop-color="#AA4FF5"/>
<stop offset="1" stop-color="#FF6A8E" stop-opacity="0"/>
</linearGradient>
</defs>
</svg>
